<?xml version="1.0" encoding="UTF-8" standalone="no"?>
<!DOCTYPE svg PUBLIC "-//W3C//DTD SVG 1.1//EN" "http://www.w3.org/Graphics/SVG/1.1/DTD/svg11.dtd">
<svg width="100%" height="100%" viewBox="0 0 70 52" version="1.1" xmlns="http://www.w3.org/2000/svg" xmlns:xlink="http://www.w3.org/1999/xlink" xml:space="preserve" xmlns:serif="http://www.serif.com/" style="fill-rule:evenodd;clip-rule:evenodd;stroke-linejoin:round;stroke-miterlimit:2;">
    <g transform="matrix(0.107566,0,0,0.107566,12.8782,2.61059)">
        <g id="g3">
            <path id="path7" d="M184.424,280.651C172.733,287.406 164.871,300.029 164.871,314.499L7.945,314.499C7.945,241.955 47.361,178.603 105.942,144.717L184.424,280.651Z" style="fill:rgb(255,200,170);fill-rule:nonzero;"/>
            <path id="path9" d="M301.992,144.717L223.51,280.651C211.469,273.663 196.462,273.666 184.425,280.651L105.943,144.717C166.368,109.748 241.438,109.674 301.992,144.717Z" style="fill:rgb(255,200,170);fill-rule:nonzero;"/>
            <path id="path11" d="M399.988,314.5L243.062,314.5C243.062,313.636 243.033,312.77 242.985,311.915L291.225,265.794L226.62,282.655C225.619,281.935 224.579,281.274 223.509,280.652L301.991,144.718C360.572,178.604 399.988,241.955 399.988,314.5Z" style="fill:rgb(255,170,170);fill-rule:nonzero;"/>
            <path id="path13" d="M291.225,265.793L242.985,311.914C242.188,299.845 235.92,289.271 226.62,282.653L291.225,265.793Z" style="fill:rgb(255,200,170);fill-rule:nonzero;"/>
            <path id="path17" d="M203.967,353.595C182.524,353.595 164.871,336.225 164.871,314.499C164.871,300.029 172.733,287.405 184.424,280.651C196.467,273.663 211.473,273.666 223.509,280.651C224.578,281.273 225.619,281.934 226.62,282.653C257.64,304.727 241.778,353.595 203.967,353.595Z" style="fill:rgb(255,200,170);fill-rule:nonzero;"/>
            <path id="path19" d="M305.97,137.839C305.969,137.838 305.967,137.838 305.966,137.837C243.053,101.431 164.888,101.429 101.974,137.834C101.971,137.836 101.967,137.837 101.963,137.839C40.814,173.21 0,239.289 0,314.5C0,318.889 3.557,322.445 7.945,322.445L157.61,322.445C161.399,344.612 180.737,361.54 203.966,361.54C227.293,361.54 246.122,345.375 250.258,322.445L399.987,322.445C404.375,322.445 407.932,318.889 407.932,314.5C407.933,239.26 367.094,173.196 305.97,137.839ZM247.578,296.53C246.166,293.109 244.336,289.852 242.103,286.824L263.598,281.215L247.578,296.53ZM291.058,147.764L220.268,270.375C210.125,266.624 198.425,266.394 187.666,270.375L116.876,147.764C171.274,119.303 236.66,119.303 291.058,147.764ZM103.121,155.722L173.912,278.334C165.22,285.57 159.47,295.776 157.608,306.555L16.058,306.555C18.722,243.3 52.563,187.903 103.121,155.722ZM203.967,345.65C186.791,345.65 172.817,331.677 172.817,314.5C172.817,297.348 186.798,283.347 203.969,283.347C220.762,283.347 234.89,296.828 235.11,314.085C235.039,329.879 223.396,345.65 203.967,345.65ZM260.088,306.555L296.716,271.535C302.614,265.894 297.125,256.045 289.219,258.105L237.982,271.476L304.814,155.721C355.365,187.897 389.212,243.292 391.877,306.554L260.088,306.554L260.088,306.555Z" style="fill:rgb(107,60,65);fill-rule:nonzero;"/>
            <g id="g21" transform="matrix(1.05937,0,0,1.05937,1.0279,32.5311)">
                <path id="path23" d="M322.983,180.09C315.399,180.068 309.243,186.21 309.243,193.789C309.243,186.21 303.088,180.068 295.504,180.09C283.577,180.124 277.313,194.539 285.643,203.252L285.639,203.254L304.414,222.77C307.05,225.51 311.435,225.51 314.071,222.77L332.846,203.254L332.842,203.252C341.185,194.528 334.894,180.124 322.983,180.09Z" style="fill:rgb(235,246,249);fill-rule:nonzero;"/>
            </g>
        </g>
    </g>
</svg>
