<?xml version="1.0" encoding="UTF-8" standalone="no"?>
<!DOCTYPE svg PUBLIC "-//W3C//DTD SVG 1.1//EN" "http://www.w3.org/Graphics/SVG/1.1/DTD/svg11.dtd">
<svg width="100%" height="100%" viewBox="0 0 65 65" version="1.1" xmlns="http://www.w3.org/2000/svg" xmlns:xlink="http://www.w3.org/1999/xlink" xml:space="preserve" xmlns:serif="http://www.serif.com/" style="fill-rule:evenodd;clip-rule:evenodd;stroke-linejoin:round;stroke-miterlimit:1.41421;">
    <g transform="matrix(1,0,0,1,-231.5,-229.5)">
        <g transform="matrix(0.078125,0,0,0.078125,244,242)">
            <path d="M146.613,0C142.451,0 139.077,3.374 139.077,7.536L139.077,71.836C139.077,75.998 142.451,79.372 146.613,79.372C150.775,79.372 154.149,75.998 154.149,71.836L154.149,7.536C154.149,3.374 150.775,0 146.613,0Z" style="fill:rgb(107,60,65);fill-rule:nonzero;"/>
        </g>
        <g transform="matrix(0.078125,0,0,0.078125,244,242)">
            <path d="M201.307,0C197.145,0 193.771,3.374 193.771,7.536L193.771,71.836C193.771,75.998 197.145,79.372 201.307,79.372C205.469,79.372 208.843,75.998 208.843,71.836L208.843,7.536C208.843,3.374 205.469,0 201.307,0Z" style="fill:rgb(107,60,65);fill-rule:nonzero;"/>
        </g>
        <g transform="matrix(0.078125,0,0,0.078125,244,242)">
            <path d="M256,0C251.838,0 248.464,3.374 248.464,7.536L248.464,71.836C248.464,75.998 251.838,79.372 256,79.372C260.162,79.372 263.536,75.998 263.536,71.836L263.536,7.536C263.536,3.374 260.162,0 256,0Z" style="fill:rgb(107,60,65);fill-rule:nonzero;"/>
        </g>
        <g transform="matrix(0.078125,0,0,0.078125,244,242)">
            <path d="M310.693,0C306.531,0 303.157,3.374 303.157,7.536L303.157,71.836C303.157,75.998 306.531,79.372 310.693,79.372C314.855,79.372 318.229,75.998 318.229,71.836L318.229,7.536C318.229,3.374 314.855,0 310.693,0Z" style="fill:rgb(107,60,65);fill-rule:nonzero;"/>
        </g>
        <g transform="matrix(0.078125,0,0,0.078125,244,242)">
            <path d="M365.387,0C361.225,0 357.851,3.374 357.851,7.536L357.851,71.836C357.851,75.998 361.225,79.372 365.387,79.372C369.549,79.372 372.923,75.998 372.923,71.836L372.923,7.536C372.923,3.374 369.549,0 365.387,0Z" style="fill:rgb(107,60,65);fill-rule:nonzero;"/>
        </g>
        <g transform="matrix(0.078125,0,0,0.078125,244,242)">
            <path d="M146.613,432.628C142.451,432.628 139.077,436.002 139.077,440.164L139.077,504.464C139.077,508.626 142.451,512 146.613,512C150.775,512 154.149,508.626 154.149,504.464L154.149,440.164C154.149,436.002 150.775,432.628 146.613,432.628Z" style="fill:rgb(107,60,65);fill-rule:nonzero;"/>
        </g>
        <g transform="matrix(0.078125,0,0,0.078125,244,242)">
            <path d="M201.307,432.628C197.145,432.628 193.771,436.002 193.771,440.164L193.771,504.464C193.771,508.626 197.145,512 201.307,512C205.469,512 208.843,508.626 208.843,504.464L208.843,440.164C208.843,436.002 205.469,432.628 201.307,432.628Z" style="fill:rgb(107,60,65);fill-rule:nonzero;"/>
        </g>
        <g transform="matrix(0.078125,0,0,0.078125,244,242)">
            <path d="M256,432.628C251.838,432.628 248.464,436.002 248.464,440.164L248.464,504.464C248.464,508.626 251.838,512 256,512C260.162,512 263.536,508.626 263.536,504.464L263.536,440.164C263.536,436.002 260.162,432.628 256,432.628Z" style="fill:rgb(107,60,65);fill-rule:nonzero;"/>
        </g>
        <g transform="matrix(0.078125,0,0,0.078125,244,242)">
            <path d="M310.693,432.628C306.531,432.628 303.157,436.002 303.157,440.164L303.157,504.464C303.157,508.626 306.531,512 310.693,512C314.855,512 318.229,508.626 318.229,504.464L318.229,440.164C318.229,436.002 314.855,432.628 310.693,432.628Z" style="fill:rgb(107,60,65);fill-rule:nonzero;"/>
        </g>
        <g transform="matrix(0.078125,0,0,0.078125,244,242)">
            <path d="M365.387,432.628C361.225,432.628 357.851,436.002 357.851,440.164L357.851,504.464C357.851,508.626 361.225,512 365.387,512C369.549,512 372.923,508.626 372.923,504.464L372.923,440.164C372.923,436.002 369.549,432.628 365.387,432.628Z" style="fill:rgb(107,60,65);fill-rule:nonzero;"/>
        </g>
        <g transform="matrix(0.078125,0,0,0.078125,244,242)">
            <path d="M440.164,154.149L504.464,154.149C508.626,154.149 512,150.775 512,146.613C512,142.451 508.626,139.077 504.464,139.077L440.164,139.077C436.002,139.077 432.628,142.451 432.628,146.613C432.628,150.775 436.002,154.149 440.164,154.149Z" style="fill:rgb(107,60,65);fill-rule:nonzero;"/>
        </g>
        <g transform="matrix(0.078125,0,0,0.078125,244,242)">
            <path d="M504.464,193.771L440.164,193.771C436.002,193.771 432.628,197.145 432.628,201.307C432.628,205.469 436.002,208.843 440.164,208.843L504.464,208.843C508.626,208.843 512,205.469 512,201.307C512,197.145 508.626,193.771 504.464,193.771Z" style="fill:rgb(107,60,65);fill-rule:nonzero;"/>
        </g>
        <g transform="matrix(0.078125,0,0,0.078125,244,242)">
            <path d="M504.464,248.464L440.164,248.464C436.002,248.464 432.628,251.838 432.628,256C432.628,260.162 436.002,263.536 440.164,263.536L504.464,263.536C508.626,263.536 512,260.162 512,256C512,251.838 508.626,248.464 504.464,248.464Z" style="fill:rgb(107,60,65);fill-rule:nonzero;"/>
        </g>
        <g transform="matrix(0.078125,0,0,0.078125,244,242)">
            <path d="M504.464,303.157L440.164,303.157C436.002,303.157 432.628,306.531 432.628,310.693C432.628,314.855 436.002,318.229 440.164,318.229L504.464,318.229C508.626,318.229 512,314.855 512,310.693C512,306.531 508.626,303.157 504.464,303.157Z" style="fill:rgb(107,60,65);fill-rule:nonzero;"/>
        </g>
        <g transform="matrix(0.078125,0,0,0.078125,244,242)">
            <path d="M504.464,357.851L440.164,357.851C436.002,357.851 432.628,361.225 432.628,365.387C432.628,369.549 436.002,372.923 440.164,372.923L504.464,372.923C508.626,372.923 512,369.549 512,365.387C512,361.225 508.626,357.851 504.464,357.851Z" style="fill:rgb(107,60,65);fill-rule:nonzero;"/>
        </g>
        <g transform="matrix(0.078125,0,0,0.078125,244,242)">
            <path d="M71.836,139.077L7.536,139.077C3.374,139.077 0,142.451 0,146.613C0,150.775 3.374,154.149 7.536,154.149L71.836,154.149C75.998,154.149 79.372,150.775 79.372,146.613C79.372,142.451 75.998,139.077 71.836,139.077Z" style="fill:rgb(107,60,65);fill-rule:nonzero;"/>
        </g>
        <g transform="matrix(0.078125,0,0,0.078125,244,242)">
            <path d="M71.836,193.771L7.536,193.771C3.374,193.771 0,197.145 0,201.307C0,205.469 3.374,208.843 7.536,208.843L71.836,208.843C75.998,208.843 79.372,205.469 79.372,201.307C79.372,197.145 75.998,193.771 71.836,193.771Z" style="fill:rgb(107,60,65);fill-rule:nonzero;"/>
        </g>
        <g transform="matrix(0.078125,0,0,0.078125,244,242)">
            <path d="M71.836,248.464L7.536,248.464C3.374,248.464 0,251.838 0,256C0,260.162 3.374,263.536 7.536,263.536L71.836,263.536C75.998,263.536 79.372,260.162 79.372,256C79.372,251.838 75.998,248.464 71.836,248.464Z" style="fill:rgb(107,60,65);fill-rule:nonzero;"/>
        </g>
        <g transform="matrix(0.078125,0,0,0.078125,244,242)">
            <path d="M71.836,303.157L7.536,303.157C3.374,303.157 0,306.531 0,310.693C0,314.855 3.374,318.229 7.536,318.229L71.836,318.229C75.998,318.229 79.372,314.855 79.372,310.693C79.372,306.531 75.998,303.157 71.836,303.157Z" style="fill:rgb(107,60,65);fill-rule:nonzero;"/>
        </g>
        <g transform="matrix(0.078125,0,0,0.078125,244,242)">
            <path d="M71.836,357.851L7.536,357.851C3.374,357.851 0,361.225 0,365.387C0,369.549 3.374,372.923 7.536,372.923L71.836,372.923C75.998,372.923 79.372,369.549 79.372,365.387C79.372,361.225 75.998,357.851 71.836,357.851Z" style="fill:rgb(107,60,65);fill-rule:nonzero;"/>
        </g>
        <g transform="matrix(0.078125,0,0,0.078125,244,242)">
            <path d="M446.645,90.358L446.645,418.518C446.645,433.189 434.751,445.083 420.08,445.083L91.92,445.083C77.249,445.083 65.355,433.189 65.355,418.518L65.355,90.358C65.355,75.687 77.249,63.793 91.92,63.793L420.08,63.793C434.751,63.793 446.645,75.685 446.645,90.358Z" style="fill:rgb(107,60,65);fill-rule:nonzero;"/>
        </g>
        <g transform="matrix(0.078125,0,0,0.078125,244,242)">
            <path d="M422.664,112.559L422.664,399.44C422.664,412.266 412.266,422.663 399.441,422.663L112.559,422.663C99.733,422.663 89.336,412.265 89.336,399.44L89.336,112.559C89.336,99.733 99.734,89.336 112.559,89.336L399.44,89.336C412.266,89.336 422.664,99.734 422.664,112.559Z" style="fill:rgb(255,170,170);fill-rule:nonzero;stroke:rgb(255,170,170);stroke-width:1.22px;"/>
        </g>
        <g transform="matrix(0.078125,0,0,0.078125,244,242)">
            <path d="M374.759,152.223L374.759,356.652C374.759,365.786 367.354,373.201 358.21,373.201L153.79,373.201C144.646,373.201 137.241,365.785 137.241,356.652L137.241,152.223C137.241,143.079 144.646,135.674 153.79,135.674L358.209,135.674C367.353,135.674 374.759,143.079 374.759,152.223Z" style="fill:rgb(255,204,170);fill-rule:nonzero;"/>
        </g>
        <g transform="matrix(0.078125,0,0,0.078125,244,242)">
            <rect x="137.237" y="173.451" width="63.283" height="15.072" style="fill:rgb(235,246,249);"/>
        </g>
        <g transform="matrix(0.078125,0,0,0.078125,244,242)">
            <rect x="309.673" y="135.67" width="15.072" height="119.321" style="fill:rgb(235,246,249);"/>
        </g>
        <g transform="matrix(0.078125,0,0,0.078125,244,242)">
            <rect x="185.689" y="319.279" width="15.072" height="53.918" style="fill:rgb(235,246,249);"/>
        </g>
        <g transform="matrix(0.078125,0,0,0.078125,244,242)">
            <path d="M374.759,318.007L374.759,333.079L264.32,333.079L264.32,373.201L249.248,373.201L249.248,264.32L219.274,264.32C215.114,264.32 211.738,260.944 211.738,256.784L211.738,200.525C211.738,196.365 215.114,192.989 219.274,192.989C223.444,192.989 226.81,196.365 226.81,200.525L226.81,249.248L291.158,249.248C295.318,249.248 298.694,252.624 298.694,256.784C298.694,260.944 295.318,264.32 291.158,264.32L264.32,264.32L264.32,318.007L374.759,318.007Z" style="fill:rgb(235,246,249);fill-rule:nonzero;"/>
        </g>
        <g transform="matrix(0.078125,0,0,0.078125,244,242)">
            <path d="M244.284,180.991C244.284,190.788 238.265,199.188 229.724,202.685C226.981,203.81 223.987,204.433 220.841,204.433C207.889,204.433 197.399,193.933 197.399,180.991C197.399,168.049 207.889,157.549 220.841,157.549C223.986,157.549 226.98,158.172 229.724,159.297C238.265,162.794 244.284,171.194 244.284,180.991Z" style="fill:rgb(235,246,249);fill-rule:nonzero;"/>
        </g>
        <g transform="matrix(0.078125,0,0,0.078125,244,242)">
            <path d="M215.114,306.783C215.114,315.706 209.778,323.382 202.112,326.789C199.399,327.995 196.395,328.668 193.229,328.668C181.151,328.668 171.354,318.871 171.354,306.783C171.354,294.705 181.151,284.908 193.229,284.908C196.394,284.908 199.399,285.581 202.112,286.787C209.779,290.194 215.114,297.871 215.114,306.783Z" style="fill:rgb(235,246,249);fill-rule:nonzero;"/>
        </g>
        <g transform="matrix(0.078125,0,0,0.078125,244,242)">
            <path d="M345.338,256.784C345.338,269.214 337.269,279.764 326.086,283.472C323.303,284.406 320.318,284.909 317.214,284.909C301.68,284.909 289.079,272.319 289.079,256.784C289.079,241.249 301.679,228.649 317.214,228.649C320.319,228.649 323.303,229.151 326.086,230.086C337.269,233.794 345.338,244.354 345.338,256.784Z" style="fill:rgb(235,246,249);fill-rule:nonzero;"/>
        </g>
    </g>
</svg>
