<?xml version="1.0" encoding="UTF-8" standalone="no"?>
<!DOCTYPE svg PUBLIC "-//W3C//DTD SVG 1.1//EN" "http://www.w3.org/Graphics/SVG/1.1/DTD/svg11.dtd">
<svg width="100%" height="100%" viewBox="0 0 81 65" version="1.1" xmlns="http://www.w3.org/2000/svg" xmlns:xlink="http://www.w3.org/1999/xlink" xml:space="preserve" xmlns:serif="http://www.serif.com/" style="fill-rule:evenodd;clip-rule:evenodd;stroke-linejoin:round;">
    <g id="path4240" transform="matrix(0.75341,0,0,0.75341,13.435,4.51419)">
        <path d="M23.598,33.927L23.598,16.084L47.463,16.084L47.463,33.927L23.598,33.927Z" style="fill:rgb(255,204,170);stroke:rgb(255,204,170);stroke-width:0.85px;"/>
    </g>
    <g id="path4242" transform="matrix(0.75341,0,0,0.75341,13.435,4.51419)">
        <path d="M12.324,32.609C12.324,31.404 12.344,31.264 12.539,31.159C12.828,31.005 17.395,31.005 17.684,31.159C17.879,31.264 17.899,31.404 17.899,32.609L17.899,33.943L12.324,33.943L12.324,32.609Z" style="fill:rgb(255,170,170);stroke:rgb(255,170,170);stroke-width:0.42px;"/>
    </g>
    <g id="path4244" transform="matrix(0.75341,0,0,0.75341,13.435,4.51419)">
        <path d="M53.028,32.717C53.028,30.929 52.857,31.024 55.993,31.066C58.075,31.094 58.519,31.128 58.606,31.267C58.664,31.359 58.713,31.999 58.714,32.689L58.715,33.943L53.028,33.943L53.028,32.717L53.028,32.717Z" style="fill:rgb(255,170,170);stroke:rgb(255,170,170);stroke-width:0.42px;"/>
    </g>
    <g id="path4246" transform="matrix(0.75341,0,0,0.75341,13.435,4.51419)">
        <path d="M39.423,12.469C39.423,11.821 39.474,11.193 39.538,11.075C39.647,10.871 39.798,10.859 42.314,10.859C44.637,10.859 44.983,10.882 45.042,11.036C45.08,11.133 45.11,11.76 45.11,12.43L45.11,13.647L39.423,13.647L39.423,12.469Z" style="fill:rgb(255,204,170);stroke:rgb(255,204,170);stroke-width:0.42px;"/>
    </g>
    <g id="path4248" transform="matrix(0.75341,0,0,0.75341,13.435,4.51419)">
        <path d="M25.953,12.281L25.985,10.915L28.653,10.885C30.714,10.862 31.342,10.887 31.412,10.996C31.461,11.074 31.502,11.703 31.503,12.393L31.505,13.647L25.922,13.647L25.953,12.281L25.953,12.281Z" style="fill:rgb(255,204,170);stroke:rgb(255,204,170);stroke-width:0.42px;"/>
    </g>
    <g id="path4238" transform="matrix(0.75341,0,0,0.75341,13.435,4.51419)">
        <path d="M8.32,54.224L8.32,36.381L62.741,36.381L62.741,54.224L8.32,54.224Z" style="fill:rgb(255,170,170);stroke:rgb(255,170,170);stroke-width:0.85px;"/>
    </g>
    <g id="path3" transform="matrix(0.75341,0,0,0.75341,13.435,4.51419)">
        <path d="M63.995,56.124L6.982,56.124C6.599,56.124 6.288,55.813 6.288,55.43L6.288,35.149C6.288,34.766 6.599,34.455 6.982,34.455L10.345,34.455L10.345,31.515C10.345,30.215 11.402,29.158 12.702,29.158L17.48,29.158C18.78,29.158 19.838,30.215 19.838,31.515L19.838,34.455L21.61,34.455L21.61,14.868C21.61,14.485 21.921,14.174 22.304,14.174L23.943,14.174L23.943,11.234C23.943,9.934 25.001,8.876 26.301,8.876L31.079,8.876C32.379,8.876 33.436,9.934 33.436,11.234L33.436,14.174L37.541,14.174L37.541,11.234C37.541,9.934 38.599,8.876 39.899,8.876L44.677,8.876C45.977,8.876 47.035,9.934 47.035,11.234L47.035,14.174L48.674,14.174C49.057,14.174 49.367,14.485 49.367,14.868L49.367,34.455L51.14,34.455L51.14,31.515C51.14,30.215 52.198,29.158 53.498,29.158L58.275,29.158C59.576,29.158 60.633,30.215 60.633,31.515L60.633,34.455L63.996,34.455C64.379,34.455 64.689,34.766 64.689,35.149L64.689,55.43C64.689,55.813 64.378,56.124 63.995,56.124ZM7.675,54.737L63.302,54.737L63.302,35.842L7.675,35.842L7.675,54.737ZM52.526,34.455L59.246,34.455L59.246,31.515C59.246,30.98 58.81,30.545 58.275,30.545L53.497,30.545C52.962,30.545 52.526,30.98 52.526,31.515L52.526,34.455ZM22.997,34.455L47.98,34.455L47.98,15.561L22.997,15.561L22.997,34.455ZM11.731,34.455L18.451,34.455L18.451,31.515C18.451,30.98 18.016,30.545 17.48,30.545L12.702,30.545C12.167,30.545 11.731,30.98 11.731,31.515L11.731,34.455ZM38.928,14.174L45.648,14.174L45.648,11.234C45.648,10.699 45.212,10.263 44.677,10.263L39.899,10.263C39.363,10.263 38.928,10.699 38.928,11.234L38.928,14.174ZM25.33,14.174L32.049,14.174L32.049,11.234C32.049,10.699 31.614,10.263 31.078,10.263L26.3,10.263C25.765,10.263 25.33,10.699 25.33,11.234L25.33,14.174Z" style="fill:rgb(107,60,65);fill-rule:nonzero;stroke:rgb(107,60,65);stroke-width:1px;stroke-linejoin:miter;"/>
    </g>
    <g id="ellipse4366" transform="matrix(0.75341,0,0,0.75341,13.435,4.51419)">
        <circle cx="15.436" cy="45.302" r="3.139" style="fill:rgb(235,246,249);stroke:black;stroke-opacity:0;stroke-width:0.58px;stroke-linecap:round;"/>
    </g>
    <g id="ellipse5619" transform="matrix(0.75341,0,0,0.75341,13.435,4.51419)">
        <circle cx="55.824" cy="45.193" r="3.139" style="fill:rgb(235,246,249);stroke:black;stroke-opacity:0;stroke-width:0.58px;stroke-linecap:round;"/>
    </g>
</svg>
