<?xml version="1.0" encoding="UTF-8" standalone="no"?>
<!DOCTYPE svg PUBLIC "-//W3C//DTD SVG 1.1//EN" "http://www.w3.org/Graphics/SVG/1.1/DTD/svg11.dtd">
<svg width="100%" height="100%" viewBox="0 0 70 70" version="1.1" xmlns="http://www.w3.org/2000/svg" xmlns:xlink="http://www.w3.org/1999/xlink" xml:space="preserve" xmlns:serif="http://www.serif.com/" style="fill-rule:evenodd;clip-rule:evenodd;stroke-linejoin:round;stroke-miterlimit:2;">
    <g transform="matrix(0.1,0,0,-0.1,-85,122.042)">
        <g>
            <g transform="matrix(0.267692,-2.25627e-34,-2.25627e-34,0.267692,862.8,618.574)">
                <path d="M913,1489C814,1474 669,1434 586,1400C424,1332 276,1207 222,1093C199,1043 195,1023 195,940C195,852 198,840 229,780C299,645 455,529 664,458C830,402 935,386 1140,386C1488,386 1761,475 1950,648L1995,690L1900,641C1732,554 1574,520 1340,520C1066,520 847,580 694,696C429,897 532,1173 922,1306C1070,1356 1287,1380 1463,1365L1550,1358L1550,1109C1550,825 1555,799 1614,775C1657,757 1690,756 1690,773C1690,779 1693,795 1696,807C1701,826 1697,829 1668,832L1635,835L1632,1088C1631,1245 1628.3,1346.04 1634.3,1346.04C1683.3,1346.04 1926,1242 1975,1202C1986,1193 1977,1205 1955,1228C1863,1328 1679,1420 1481,1467C1390,1488 1346,1492 1175,1495C1065,1497 947,1494 913,1489Z" style="fill:rgb(255,200,170);fill-rule:nonzero;"/>
                <path d="M913,1489C814,1474 669,1434 586,1400C424,1332 276,1207 222,1093C199,1043 195,1023 195,940C195,852 198,840 229,780C299,645 455,529 664,458C830,402 935,386 1140,386C1488,386 1761,475 1950,648L1995,690L1900,641C1732,554 1574,520 1340,520C1066,520 847,580 694,696C429,897 532,1173 922,1306C1070,1356 1287,1380 1463,1365L1550,1358L1550,1109C1550,825 1555,799 1614,775C1657,757 1690,756 1690,773C1690,779 1693,795 1696,807C1701,826 1697,829 1668,832L1635,835L1632,1088C1631,1245 1628.3,1346.04 1634.3,1346.04C1683.3,1346.04 1926,1242 1975,1202C1986,1193 1977,1205 1955,1228C1863,1328 1679,1420 1481,1467C1390,1488 1346,1492 1175,1495C1065,1497 947,1494 913,1489ZM1410.44,1424.34C1353.22,1434.25 1298.71,1436.79 1173.98,1438.98C1067.9,1440.9 954.098,1438.39 921.209,1433.57C826.121,1419.14 686.929,1380.79 607.688,1348.33C459.286,1286.04 322.108,1173.44 272.907,1069.58C253.452,1027.29 251.035,1010.21 251.035,940C251.035,866.233 252.797,856.016 278.745,805.794C343.351,681.197 489.13,576.585 681.911,511.095C841.653,457.206 942.729,442.035 1140,442.035C1242.35,442.035 1337.95,449.905 1426.51,465.639C1398.74,464.509 1369.97,463.965 1340,463.965C1051.41,463.965 821.295,529.17 660.137,651.355C535.386,745.978 483.83,856.863 491.569,963.311C502.614,1115.22 641.902,1269.68 904.065,1359.09C1042.6,1405.89 1239.12,1431.04 1410.44,1424.34ZM1634.29,778.799C1634.18,777.861 1634.1,776.909 1634.05,775.943C1633.99,774.976 1633.97,773.995 1633.97,773L1634.29,778.799Z" style="fill:rgb(107,60,65);"/>
            </g>
            <g transform="matrix(0.267692,-2.25627e-34,-2.25627e-34,0.267692,854.177,619.67)">
                <path d="M1234,1110C1222,1106 1203,1089 1191,1074C1173,1051 1170,1034 1170,939C1170,833 1171,829 1199,798C1227,767 1232,765 1309,762L1390,758L1390,729C1390,690 1366,680 1271,680C1226,680 1190,677 1190,673C1190,668 1193,655 1196,643C1202,621 1207,620 1302,620C1399,620 1402,621 1431,649L1460,678L1460,889C1460,1005 1461,1103 1463,1108C1466,1118 1259,1121 1234,1110ZM1390,1050L1390,830L1327,830C1291,830 1259,835 1252,842C1236,858 1236,1022 1252,1038C1259,1045 1291,1050 1327,1050L1390,1050Z" style="fill:rgb(255,200,170);fill-rule:nonzero;"/>
                <path d="M1407.78,1115.5C1440.35,1114.04 1464.03,1111.43 1463,1108C1461,1103 1460,1005 1460,889L1460,678L1431,649C1402,621 1399,620 1302,620C1207,620 1202,621 1196,643C1193,655 1190,668 1190,673C1190,677 1226,680 1271,680C1366,680 1390,690 1390,729L1390,758L1309,762C1232,765 1227,767 1199,798C1171,829 1170,833 1170,939C1170,1034 1173,1051 1191,1074C1203,1089 1222,1106 1234,1110C1250.39,1117.21 1345.06,1118.41 1407.44,1115.52C1407.09,1113.31 1406.91,1111.11 1406.87,1108.91C1407.14,1111.32 1407.45,1113.51 1407.78,1115.5ZM1390,1050L1390,830L1327,830C1291,830 1259,835 1252,842C1236,858 1236,1022 1252,1038C1259,1045 1291,1050 1327,1050L1390,1050Z" style="fill:rgb(107,60,65);"/>
            </g>
            <g transform="matrix(0.267692,-2.25627e-34,-2.25627e-34,0.267692,880.016,618.988)">
                <path d="M1798,1104C1749,1078 1740,1045 1740,895L1740,760L1810,760L1810,893C1810,983 1814,1030 1822,1038C1829,1045 1859,1050 1890,1050C1921,1050 1951,1045 1958,1038C1966,1030 1970,983 1970,893L1970,760L2040,760L2040,893C2040,983 2044,1030 2052,1038C2070,1056 2179,1054 2186,1036C2189,1028 2192,964 2193,893L2195,765L2228,762L2260,759L2260,907C2260,1045 2258,1058 2239,1079C2228,1091 2207,1105 2193,1111C2157,1124 2059,1122 2029,1106C2007,1095 1999,1095 1979,1106C1946,1124 1832,1123 1798,1104Z" style="fill:rgb(255,200,170);fill-rule:nonzero;"/>
                <path d="M1798,1104C1749,1078 1740,1045 1740,895L1740,760L1810,760L1810,893C1810,983 1814,1030 1822,1038C1829,1045 1859,1050 1890,1050C1921,1050 1951,1045 1958,1038C1966,1030 1970,983 1970,893L1970,760L2040,760L2040,893C2040,983 2044,1030 2052,1038C2070,1056 2179,1054 2186,1036C2189,1028 2192,964 2193,893L2195,765L2228,762L2260,759L2260,907C2260,1045 2258,1058 2239,1079C2228,1091 2207,1105 2193,1111C2157,1124 2059,1122 2029,1106C2007,1095 1999,1095 1979,1106C1946,1124 1832,1123 1798,1104Z" style="fill:rgb(107,60,65);"/>
            </g>
        </g>
    </g>
</svg>
