<?xml version="1.0" encoding="UTF-8" standalone="no"?>
<!DOCTYPE svg PUBLIC "-//W3C//DTD SVG 1.1//EN" "http://www.w3.org/Graphics/SVG/1.1/DTD/svg11.dtd">
<svg width="100%" height="100%" viewBox="0 0 65 65" version="1.1" xmlns="http://www.w3.org/2000/svg" xmlns:xlink="http://www.w3.org/1999/xlink" xml:space="preserve" xmlns:serif="http://www.serif.com/" style="fill-rule:evenodd;clip-rule:evenodd;stroke-linejoin:bevel;">
    <g transform="matrix(0.10549,0,0,0.10549,17.9607,10)">
        <g id="g3">
            <g>
                <g id="g4855" transform="matrix(0.833166,0,0,0.833166,-75.4638,-0.253543)">
                    <rect id="rect4398" x="20.821" y="174.653" width="255.734" height="162.804" style="fill:rgb(255,204,170);"/>
                    <rect id="rect4178" x="244.045" y="174.653" width="247.19" height="162.804" style="fill:rgb(255,204,170);"/>
                    <circle id="circle5" cx="69.973" cy="162.133" r="8.533" style="fill:rgb(107,60,65);"/>
                    <circle id="circle7" cx="131.405" cy="162.133" r="8.533" style="fill:rgb(107,60,65);"/>
                    <circle id="circle9" cx="100.693" cy="162.133" r="8.533" style="fill:rgb(107,60,65);"/>
                    <circle id="circle11" cx="39.253" cy="162.133" r="8.533" style="fill:rgb(107,60,65);"/>
                    <path id="path13" d="M8.533,170.667C10.837,170.667 12.971,169.728 14.592,168.192C16.128,166.571 17.067,164.352 17.067,162.133C17.067,159.915 16.128,157.696 14.592,156.075C11.435,152.917 5.632,152.917 2.475,156.075C0.93,157.696 0,159.829 0,162.133C0,164.437 0.93,166.571 2.475,168.192C4.087,169.728 6.221,170.667 8.533,170.667Z" style="fill:rgb(107,60,65);fill-rule:nonzero;"/>
                    <path id="path15" d="M8.533,327.083C13.227,327.083 17.067,323.328 17.067,318.549C17.067,313.856 13.227,310.016 8.533,310.016C3.84,310.016 0,313.856 0,318.549C0,323.328 3.84,327.083 8.533,327.083Z" style="fill:rgb(107,60,65);fill-rule:nonzero;"/>
                    <path id="path17" d="M8.533,295.851C13.227,295.851 17.067,292.011 17.067,287.317C17.067,282.539 13.227,278.784 8.533,278.784C3.84,278.784 0,282.539 0,287.317C0,292.011 3.84,295.851 8.533,295.851Z" style="fill:rgb(107,60,65);fill-rule:nonzero;"/>
                    <path id="path19" d="M8.533,201.984C13.227,201.984 17.067,198.144 17.067,193.451C17.067,188.672 13.227,184.917 8.533,184.917C3.84,184.917 0,188.672 0,193.451C0,198.144 3.84,201.984 8.533,201.984Z" style="fill:rgb(107,60,65);fill-rule:nonzero;"/>
                    <path id="path21" d="M8.533,233.216C13.227,233.216 17.067,229.461 17.067,224.683C17.067,219.989 13.227,216.149 8.533,216.149C3.84,216.149 0,219.989 0,224.683C0,229.461 3.84,233.216 8.533,233.216Z" style="fill:rgb(107,60,65);fill-rule:nonzero;"/>
                    <circle id="circle23" cx="8.533" cy="256" r="8.533" style="fill:rgb(107,60,65);"/>
                    <path id="path25" d="M17.067,349.867C17.067,347.648 16.128,345.429 14.592,343.808C11.435,340.651 5.632,340.651 2.475,343.808C0.93,345.429 0,347.648 0,349.867C0,352.171 0.93,354.304 2.475,355.84C4.087,357.461 6.221,358.4 8.533,358.4C10.837,358.4 12.971,357.461 14.592,355.925C16.128,354.304 17.067,352.085 17.067,349.867Z" style="fill:rgb(107,60,65);fill-rule:nonzero;"/>
                    <circle id="circle27" cx="69.973" cy="349.867" r="8.533" style="fill:rgb(107,60,65);"/>
                    <circle id="circle29" cx="39.253" cy="349.867" r="8.533" style="fill:rgb(107,60,65);"/>
                    <circle id="circle31" cx="131.405" cy="349.867" r="8.533" style="fill:rgb(107,60,65);"/>
                    <circle id="circle33" cx="100.693" cy="349.867" r="8.533" style="fill:rgb(107,60,65);"/>
                    <circle id="circle35" cx="467.2" cy="349.867" r="8.533" style="fill:rgb(107,60,65);"/>
                    <circle id="circle37" cx="430.933" cy="349.867" r="8.533" style="fill:rgb(107,60,65);"/>
                    <circle id="circle39" cx="394.667" cy="349.867" r="8.533" style="fill:rgb(107,60,65);"/>
                    <path id="path41" d="M497.408,343.808C495.863,345.429 494.933,347.648 494.933,349.867C494.933,352.085 495.863,354.304 497.408,355.925C499.021,357.461 501.248,358.4 503.467,358.4C505.771,358.4 507.904,357.461 509.525,355.925C511.061,354.304 512,352.085 512,349.867C512,347.648 511.061,345.429 509.525,343.808C506.368,340.651 500.565,340.651 497.408,343.808Z" style="fill:rgb(107,60,65);fill-rule:nonzero;"/>
                    <path id="path43" d="M503.467,278.784C498.773,278.784 494.933,282.539 494.933,287.317C494.933,292.011 498.773,295.851 503.467,295.851C508.16,295.851 512,292.011 512,287.317C512,282.539 508.16,278.784 503.467,278.784Z" style="fill:rgb(107,60,65);fill-rule:nonzero;"/>
                    <circle id="circle45" cx="503.467" cy="256" r="8.533" style="fill:rgb(107,60,65);"/>
                    <path id="path47" d="M503.467,184.917C498.773,184.917 494.933,188.672 494.933,193.451C494.933,198.144 498.773,201.984 503.467,201.984C508.16,201.984 512,198.144 512,193.451C512,188.672 508.16,184.917 503.467,184.917Z" style="fill:rgb(107,60,65);fill-rule:nonzero;"/>
                    <path id="path49" d="M503.467,310.016C498.773,310.016 494.933,313.856 494.933,318.549C494.933,323.328 498.773,327.083 503.467,327.083C508.16,327.083 512,323.328 512,318.549C512,313.856 508.16,310.016 503.467,310.016Z" style="fill:rgb(107,60,65);fill-rule:nonzero;"/>
                    <path id="path51" d="M503.467,216.149C498.773,216.149 494.933,219.989 494.933,224.683C494.933,229.461 498.773,233.216 503.467,233.216C508.16,233.216 512,229.461 512,224.683C512,219.989 508.16,216.149 503.467,216.149Z" style="fill:rgb(107,60,65);fill-rule:nonzero;"/>
                    <path id="path53" d="M497.408,156.075C495.863,157.696 494.933,159.915 494.933,162.133C494.933,164.352 495.863,166.571 497.408,168.192C499.021,169.728 501.248,170.667 503.467,170.667C505.685,170.667 507.904,169.728 509.525,168.192C511.061,166.571 512,164.352 512,162.133C512,159.915 511.061,157.696 509.525,156.075C506.283,152.917 500.651,152.917 497.408,156.075Z" style="fill:rgb(107,60,65);fill-rule:nonzero;"/>
                    <circle id="circle55" cx="430.933" cy="162.133" r="8.533" style="fill:rgb(107,60,65);"/>
                    <circle id="circle57" cx="467.2" cy="162.133" r="8.533" style="fill:rgb(107,60,65);"/>
                    <circle id="circle59" cx="394.667" cy="162.133" r="8.533" style="fill:rgb(107,60,65);"/>
                </g>
                <g id="path4183" transform="matrix(0.769076,0,0,0.769076,-75.4638,0)">
                    <path d="M185.907,277.004L185.907,18.394L282.233,18.69L378.558,18.985L378.85,277.3L379.142,535.614L185.907,535.614L185.907,277.004L185.907,277.004Z" style="fill:rgb(255,170,170);stroke:rgb(255,170,170);stroke-width:11.26px;"/>
                </g>
                <g id="path61" transform="matrix(0.833166,0,0,0.833166,-75.4638,0)">
                    <path d="M460.8,119.467L440.32,104.107C436.565,101.265 431.206,102.042 428.382,105.813C425.549,109.585 426.317,114.935 430.089,117.76L464.222,143.36C464.384,143.479 464.58,143.522 464.751,143.633C465.015,143.804 465.237,144.026 465.527,144.171C465.673,144.239 465.835,144.213 465.971,144.273C467.046,144.742 468.173,145.067 469.325,145.067C470.468,145.067 471.578,144.751 472.644,144.299C472.943,144.171 473.207,144.017 473.498,143.855C473.805,143.676 474.155,143.582 474.445,143.36L508.578,117.76C512.35,114.935 513.118,109.585 510.285,105.813C507.46,102.042 502.11,101.265 498.347,104.107L477.867,119.467C477.867,56.474 428.826,4.838 366.933,0.435L366.933,0L153.6,0L153.6,494.498C101.12,490.138 59.733,446.114 59.733,392.533L80.213,407.893C81.749,409.045 83.541,409.6 85.325,409.6C87.927,409.6 90.479,408.422 92.16,406.187C94.993,402.415 94.225,397.065 90.453,394.24L56.32,368.64C56.192,368.546 56.038,368.529 55.91,368.444C55.612,368.239 55.347,368 55.023,367.829C54.605,367.625 54.153,367.531 53.717,367.394C53.487,367.326 53.274,367.223 53.043,367.172C52.105,366.967 51.149,366.916 50.202,367.027C49.971,367.053 49.766,367.138 49.536,367.181C48.785,367.334 48.077,367.582 47.386,367.932C47.121,368.06 46.882,368.188 46.635,368.35C46.447,368.461 46.251,368.521 46.08,368.64L11.947,394.24C8.175,397.065 7.407,402.415 10.24,406.187C13.065,409.95 18.406,410.726 22.178,407.893L42.667,392.533C42.667,455.526 91.708,507.162 153.6,511.565L153.6,512L366.933,512L366.933,17.502C419.413,21.862 460.8,65.886 460.8,119.467ZM349.867,494.933L170.667,494.933L170.667,17.067L349.867,17.067L349.867,494.933Z" style="fill:rgb(107,60,65);fill-rule:nonzero;stroke:black;stroke-opacity:0;stroke-width:8.53px;stroke-linecap:round;stroke-linejoin:round;"/>
                </g>
                <g id="g4816" transform="matrix(0.57961,0.598513,-0.598513,0.57961,139.604,-91.9927)">
                    <path id="path4580" d="M264.847,217.737L264.847,287.827" style="fill:none;stroke:rgb(235,246,249);stroke-width:19.69px;stroke-linecap:round;stroke-linejoin:round;"/>
                    <path id="path4582" d="M229.803,252.782L299.892,252.782" style="fill:none;stroke:rgb(235,246,249);stroke-width:19.69px;stroke-linecap:round;stroke-linejoin:round;"/>
                </g>
            </g>
        </g>
    </g>
</svg>
