<?xml version="1.0" encoding="UTF-8" standalone="no"?>
<!DOCTYPE svg PUBLIC "-//W3C//DTD SVG 1.1//EN" "http://www.w3.org/Graphics/SVG/1.1/DTD/svg11.dtd">
<svg width="100%" height="100%" viewBox="0 0 75 59" version="1.1" xmlns="http://www.w3.org/2000/svg" xmlns:xlink="http://www.w3.org/1999/xlink" xml:space="preserve" xmlns:serif="http://www.serif.com/" style="fill-rule:evenodd;clip-rule:evenodd;stroke-linecap:round;stroke-linejoin:round;">
    <g transform="matrix(0,-1,1,0,-2,63.7591)">
        <g transform="matrix(0.446596,-3.43795e-33,0,0.446596,45.5823,-8.62455)">
            <rect x="7.082" y="50.66" width="22.423" height="22.423" style="fill:rgb(255,200,170);stroke:rgb(107,60,65);stroke-width:2.66px;"/>
        </g>
        <g transform="matrix(0.446596,-3.43795e-33,0,0.446596,30.8786,5.03744)">
            <rect x="40.006" y="50.66" width="22.423" height="22.423" style="fill:rgb(235,246,249);stroke:rgb(107,60,65);stroke-width:2.66px;"/>
        </g>
        <g transform="matrix(0.446596,-3.43795e-33,0,0.446596,32.3348,18.6994)">
            <rect x="7.082" y="50.66" width="22.423" height="22.423" style="fill:rgb(255,200,170);stroke:rgb(107,60,65);stroke-width:2.66px;"/>
        </g>
        <g transform="matrix(0.446596,-3.43795e-33,0,0.446596,30.8786,18.6994)">
            <rect x="40.006" y="50.66" width="22.423" height="22.423" style="fill:rgb(235,246,249);stroke:rgb(107,60,65);stroke-width:2.66px;"/>
        </g>
        <g transform="matrix(0.446596,-3.43795e-33,0,0.446596,30.8786,32.3614)">
            <rect x="40.006" y="50.66" width="22.423" height="22.423" style="fill:rgb(235,246,249);stroke:rgb(107,60,65);stroke-width:2.66px;"/>
        </g>
        <g transform="matrix(0.446596,-3.43795e-33,0,0.446596,32.3348,5.03744)">
            <rect x="7.082" y="50.66" width="22.423" height="22.423" style="fill:rgb(255,200,170);stroke:rgb(107,60,65);stroke-width:2.66px;"/>
        </g>
        <g transform="matrix(0.446596,-3.43795e-33,0,0.446596,17.6311,32.3614)">
            <rect x="40.006" y="50.66" width="22.423" height="22.423" style="fill:rgb(235,246,249);stroke:rgb(107,60,65);stroke-width:2.66px;"/>
        </g>
        <g transform="matrix(0.446596,-3.43795e-33,0,0.446596,19.0873,5.03744)">
            <rect x="7.082" y="50.66" width="22.423" height="22.423" style="fill:rgb(235,246,249);stroke:rgb(107,60,65);stroke-width:2.66px;"/>
        </g>
        <g transform="matrix(0.446596,-3.43795e-33,0,0.446596,17.6311,-8.62455)">
            <rect x="40.006" y="50.66" width="22.423" height="22.423" style="fill:rgb(235,246,249);stroke:rgb(107,60,65);stroke-width:2.66px;"/>
        </g>
        <g transform="matrix(0.446596,-3.43795e-33,0,0.446596,19.0873,18.6994)">
            <rect x="7.082" y="50.66" width="22.423" height="22.423" style="fill:rgb(255,200,170);stroke:rgb(107,60,65);stroke-width:2.66px;"/>
        </g>
        <g transform="matrix(0.446596,-3.43795e-33,0,0.446596,4.38355,32.3614)">
            <rect x="40.006" y="50.66" width="22.423" height="22.423" style="fill:rgb(235,246,249);stroke:rgb(107,60,65);stroke-width:2.66px;"/>
        </g>
        <g transform="matrix(0.446596,-3.43795e-33,0,0.446596,5.83978,32.3614)">
            <rect x="7.082" y="50.66" width="22.423" height="22.423" style="fill:rgb(255,200,170);stroke:rgb(107,60,65);stroke-width:2.66px;"/>
        </g>
        <g transform="matrix(0.446596,-3.43795e-33,0,0.446596,4.38355,-8.62455)">
            <rect x="40.006" y="50.66" width="22.423" height="22.423" style="fill:rgb(235,246,249);stroke:rgb(107,60,65);stroke-width:2.66px;"/>
        </g>
        <g transform="matrix(0.446596,-3.43795e-33,0,0.446596,-8.86395,5.03744)">
            <rect x="40.006" y="50.66" width="22.423" height="22.423" style="fill:rgb(235,246,249);stroke:rgb(107,60,65);stroke-width:2.66px;"/>
        </g>
        <g transform="matrix(0.446596,-3.43795e-33,0,0.446596,-8.86395,-8.62455)">
            <rect x="40.006" y="50.66" width="22.423" height="22.423" style="fill:rgb(235,246,249);stroke:rgb(107,60,65);stroke-width:2.66px;"/>
        </g>
        <g transform="matrix(0.446596,-3.43795e-33,0,0.446596,-8.86395,18.6994)">
            <rect x="40.006" y="50.66" width="22.423" height="22.423" style="fill:rgb(235,246,249);stroke:rgb(107,60,65);stroke-width:2.66px;"/>
        </g>
    </g>
</svg>
