<?xml version="1.0" encoding="UTF-8" standalone="no"?>
<!DOCTYPE svg PUBLIC "-//W3C//DTD SVG 1.1//EN" "http://www.w3.org/Graphics/SVG/1.1/DTD/svg11.dtd">
<svg width="70px" height="70px" version="1.1" xmlns="http://www.w3.org/2000/svg" xmlns:xlink="http://www.w3.org/1999/xlink" xml:space="preserve" xmlns:serif="http://www.serif.com/" style="fill-rule:evenodd;clip-rule:evenodd;stroke-linejoin:round;stroke-miterlimit:1.41421;">
    <g transform="matrix(0.1,0,0,-0.1,-85,125)">
        <g transform="matrix(0.306095,0,0,0.306095,814.426,612.022)">
            <path d="M913,1489C814,1474 669,1434 586,1400C424,1332 276,1207 222,1093C199,1043 195,1023 195,940C195,852 198,840 229,780C299,645 455,529 664,458C830,402 935,386 1140,386C1488,386 1761,475 1950,648L1995,690L1900,641C1732,554 1574,520 1340,520C1066,520 847,580 694,696C429,897 532,1173 922,1306C1070,1356 1287,1380 1463,1365L1550,1358L1550,1109C1550,825 1555,799 1614,775C1657,757 1690,756 1690,773C1690,779 1693,795 1696,807C1701,826 1697,829 1668,832L1635,835L1632,1088C1631,1245 1628.3,1346.04 1634.3,1346.04C1683.3,1346.04 1926,1242 1975,1202C1986,1193 1977,1205 1955,1228C1863,1328 1679,1420 1481,1467C1390,1488 1346,1492 1175,1495C1065,1497 947,1494 913,1489Z" style="fill:rgb(255,200,170);fill-rule:nonzero;"/>
            <path d="M1112.89,1495.62L1123.2,1495.58L1133.56,1495.52L1143.93,1495.43L1154.3,1495.32L1164.67,1495.17L1175,1495L1205.62,1494.42L1219.89,1494.12L1233.51,1493.8L1246.52,1493.46L1258.94,1493.1L1270.81,1492.72L1282.16,1492.31L1293.02,1491.88L1303.42,1491.41L1313.39,1490.9L1322.97,1490.36L1332.19,1489.78L1341.08,1489.15L1349.67,1488.47L1358,1487.75L1366.09,1486.97L1373.98,1486.14L1381.7,1485.25L1389.28,1484.3L1396.75,1483.28L1404.15,1482.19L1411.5,1481.04L1418.84,1479.81L1426.21,1478.51L1433.62,1477.12L1441.12,1475.66L1448.74,1474.11L1456.5,1472.47L1464.45,1470.74L1472.6,1468.92L1481,1467L1490.27,1464.76L1499.52,1462.46L1508.74,1460.1L1517.94,1457.67L1527.11,1455.18L1536.25,1452.62L1545.36,1450.01L1554.44,1447.34L1563.48,1444.61L1572.49,1441.81L1581.46,1438.96L1590.38,1436.06L1599.27,1433.1L1608.11,1430.08L1616.91,1427.01L1625.66,1423.89L1634.36,1420.71L1643.01,1417.49L1651.6,1414.21L1660.14,1410.88L1668.63,1407.51L1677.06,1404.08L1685.42,1400.61L1693.73,1397.09L1701.97,1393.53L1710.15,1389.92L1718.26,1386.27L1726.3,1382.57L1734.28,1378.83L1742.17,1375.05L1750,1371.23L1757.75,1367.38L1765.42,1363.48L1773.01,1359.54L1780.53,1355.57L1787.95,1351.56L1795.3,1347.51L1802.55,1343.43L1809.72,1339.32L1816.8,1335.17L1823.79,1331L1830.68,1326.79L1837.48,1322.55L1844.18,1318.28L1850.78,1313.98L1857.28,1309.65L1863.68,1305.3L1869.97,1300.92L1876.16,1296.52L1882.23,1292.09L1888.2,1287.64L1894.06,1283.16L1899.81,1278.67L1905.43,1274.15L1910.95,1269.61L1916.34,1265.05L1921.61,1260.48L1926.76,1255.88L1931.79,1251.27L1934.26,1248.96L1936.69,1246.65L1939.09,1244.33L1941.46,1242.01L1943.8,1239.68L1946.11,1237.35L1948.38,1235.02L1950.62,1232.68L1952.83,1230.34L1955,1228L1958.97,1223.82L1962.63,1219.91L1965.96,1216.29L1968.95,1212.97L1971.6,1209.96L1973.9,1207.29L1975.82,1204.97L1977.38,1203L1978.54,1201.41L1978.97,1200.76L1979.31,1200.21L1979.54,1199.76L1979.67,1199.41L1979.69,1199.17L1979.66,1199.09L1979.61,1199.03L1979.53,1199L1979.42,1199L1979.12,1199.09L1978.72,1199.28L1978.2,1199.59L1977.57,1200.01L1976.83,1200.56L1975,1202L1973.82,1202.95L1972.56,1203.92L1969.85,1205.93L1966.87,1208.03L1963.64,1210.21L1960.15,1212.47L1956.43,1214.8L1952.48,1217.2L1948.3,1219.67L1943.91,1222.21L1939.32,1224.8L1934.54,1227.45L1929.56,1230.15L1924.41,1232.89L1919.09,1235.68L1913.61,1238.52L1907.99,1241.38L1902.21,1244.28L1896.31,1247.21L1890.28,1250.16L1884.14,1253.13L1877.89,1256.12L1871.54,1259.12L1865.1,1262.14L1858.59,1265.15L1852,1268.17L1845.35,1271.19L1838.65,1274.2L1831.9,1277.2L1825.12,1280.18L1818.31,1283.15L1811.49,1286.1L1804.65,1289.02L1797.82,1291.91L1790.99,1294.77L1784.18,1297.59L1777.4,1300.37L1770.65,1303.11L1763.95,1305.8L1757.3,1308.43L1750.72,1311.01L1744.2,1313.53L1737.76,1315.99L1731.42,1318.37L1725.17,1320.69L1719.02,1322.93L1713,1325.09L1707.09,1327.17L1701.32,1329.16L1695.69,1331.06L1690.21,1332.87L1684.89,1334.57L1679.74,1336.18L1674.77,1337.67L1669.98,1339.06L1665.39,1340.34L1661,1341.49L1656.83,1342.53L1652.87,1343.44L1649.15,1344.22L1645.67,1344.86L1644.02,1345.13L1642.43,1345.37L1640.91,1345.57L1639.45,1345.74L1638.06,1345.87L1636.74,1345.96L1635.49,1346.02L1634.3,1346.04L1634.16,1346.02L1634.03,1345.97L1633.9,1345.88L1633.77,1345.75L1633.52,1345.38L1633.28,1344.87L1633.05,1344.21L1632.84,1343.41L1632.63,1342.47L1632.44,1341.39L1632.26,1340.17L1632.09,1338.81L1631.78,1335.68L1631.51,1332.01L1631.27,1327.8L1631.07,1323.07L1630.91,1317.82L1630.78,1312.05L1630.67,1305.79L1630.6,1299.04L1630.55,1291.8L1630.53,1275.89L1630.58,1258.15L1630.71,1238.64L1630.88,1217.42L1631.09,1194.55L1631.57,1144.16L1631.8,1116.77L1632,1088L1635,835L1668,832L1673.15,831.434L1675.51,831.143L1677.73,830.844L1679.82,830.533L1681.78,830.207L1683.61,829.864L1685.31,829.5L1686.89,829.113L1688.35,828.699L1689.69,828.256L1690.92,827.781L1692.04,827.271L1693.05,826.723L1693.95,826.133L1694.36,825.822L1694.75,825.5L1695.11,825.166L1695.45,824.82L1695.77,824.461L1696.06,824.09L1696.32,823.705L1696.57,823.307L1696.79,822.895L1696.98,822.469L1697.16,822.028L1697.32,821.572L1697.56,820.613L1697.73,819.59L1697.81,818.5L1697.82,817.339L1697.76,816.105L1697.62,814.795L1697.42,813.406L1697.16,811.935L1696.83,810.379L1696.44,808.735L1696,807L1694.88,802.34L1693.8,797.469L1692.78,792.551L1691.88,787.75L1691.11,783.23L1690.79,781.127L1690.52,779.156L1690.3,777.337L1690.13,775.691L1690.03,774.239L1690,773L1689.98,772.216L1689.9,771.459L1689.79,770.728L1689.62,770.023L1689.41,769.345L1689.15,768.693L1688.85,768.067L1688.5,767.467L1688.11,766.893L1687.67,766.346L1687.19,765.825L1686.67,765.329L1686.11,764.86L1685.5,764.417L1684.86,764L1684.17,763.609L1683.45,763.244L1682.68,762.905L1681.88,762.592L1681.03,762.305L1680.15,762.044L1679.24,761.809L1678.28,761.6L1677.29,761.416L1676.27,761.258L1675.2,761.126L1674.11,761.02L1672.98,760.94L1671.81,760.885L1670.62,760.856L1669.39,760.853L1668.12,760.875L1665.51,760.997L1662.77,761.22L1659.91,761.547L1656.94,761.975L1653.87,762.504L1650.68,763.136L1647.4,763.869L1644.02,764.703L1640.54,765.638L1636.98,766.675L1633.34,767.811L1629.61,769.049L1625.81,770.387L1621.94,771.824L1618,773.362L1614,775L1611.27,776.127L1608.62,777.264L1606.05,778.415L1603.56,779.586L1601.14,780.784L1598.79,782.014L1596.51,783.282L1594.31,784.594L1592.18,785.956L1590.11,787.373L1588.12,788.852L1586.18,790.398L1585.24,791.199L1584.32,792.018L1583.41,792.857L1582.52,793.717L1581.64,794.598L1580.78,795.5L1579.94,796.426L1579.11,797.375L1578.3,798.348L1577.5,799.346L1576.71,800.37L1575.94,801.42L1575.19,802.497L1574.45,803.602L1573.72,804.736L1573.01,805.898L1572.32,807.091L1571.63,808.315L1570.96,809.57L1570.31,810.857L1569.67,812.178L1569.04,813.532L1568.42,814.92L1567.82,816.344L1567.23,817.803L1566.66,819.299L1566.1,820.833L1565.55,822.404L1564.48,825.665L1563.47,829.086L1562.5,832.674L1561.58,836.436L1560.7,840.375L1559.88,844.5L1559.09,848.815L1558.34,853.326L1557.64,858.04L1556.97,862.961L1556.35,868.096L1555.76,873.451L1555.21,879.032L1554.69,884.844L1554.21,890.893L1553.76,897.186L1553.35,903.727L1552.96,910.523L1552.6,917.581L1552.28,924.904L1551.98,932.5L1551.7,940.375L1551.45,948.534L1551.23,956.982L1551.03,965.727L1550.85,974.773L1550.69,984.127L1550.55,993.795L1550.33,1014.09L1550.17,1035.72L1550.07,1058.71L1550.02,1083.12L1550,1109L1550,1358L1463,1365L1454.72,1365.67L1446.38,1366.29L1437.99,1366.85L1429.55,1367.36L1421.05,1367.81L1412.51,1368.2L1403.92,1368.54L1395.29,1368.82L1386.62,1369.05L1377.92,1369.22L1369.17,1369.34L1360.4,1369.41L1351.6,1369.42L1342.77,1369.38L1333.91,1369.29L1325.03,1369.14L1316.13,1368.94L1307.22,1368.69L1298.29,1368.39L1289.35,1368.03L1280.39,1367.63L1271.43,1367.17L1262.47,1366.66L1253.5,1366.11L1244.54,1365.5L1235.58,1364.84L1226.62,1364.14L1217.67,1363.38L1208.73,1362.58L1199.8,1361.73L1190.89,1360.82L1182,1359.88L1173.13,1358.88L1164.28,1357.84L1155.45,1356.74L1146.66,1355.61L1137.89,1354.42L1129.16,1353.19L1120.47,1351.92L1111.81,1350.6L1103.19,1349.23L1094.62,1347.82L1086.09,1346.36L1077.61,1344.86L1069.18,1343.32L1060.8,1341.73L1052.48,1340.1L1044.22,1338.42L1036.02,1336.7L1027.88,1334.94L1019.81,1333.14L1011.8,1331.3L1003.87,1329.41L996.009,1327.48L988.225,1325.52L980.52,1323.51L972.895,1321.46L965.354,1319.37L957.898,1317.24L950.532,1315.07L943.256,1312.86L936.074,1310.61L928.988,1308.33L922,1306L912.912,1302.86L903.929,1299.66L895.052,1296.42L886.281,1293.12L877.615,1289.77L869.056,1286.38L860.604,1282.93L852.258,1279.44L844.019,1275.9L835.888,1272.31L827.863,1268.68L819.947,1265L812.138,1261.28L804.437,1257.51L796.845,1253.7L789.361,1249.85L781.986,1245.95L774.721,1242.01L767.564,1238.03L760.517,1234.01L753.58,1229.95L746.752,1225.86L740.035,1221.72L733.428,1217.54L726.932,1213.33L720.547,1209.08L714.273,1204.79L708.111,1200.47L702.059,1196.12L696.12,1191.73L690.293,1187.3L684.578,1182.84L678.976,1178.35L673.486,1173.83L668.109,1169.28L662.846,1164.7L657.696,1160.08L655.164,1157.77L652.66,1155.44L650.184,1153.11L647.737,1150.77L645.319,1148.42L642.929,1146.07L640.568,1143.71L638.235,1141.34L635.931,1138.97L633.656,1136.59L631.409,1134.2L629.191,1131.81L627.002,1129.41L624.842,1127.01L622.71,1124.59L620.608,1122.18L618.534,1119.75L616.489,1117.32L614.473,1114.89L612.486,1112.44L610.529,1110L608.6,1107.54L606.7,1105.08L604.829,1102.62L602.987,1100.15L601.175,1097.67L599.392,1095.19L597.637,1092.71L595.913,1090.22L594.217,1087.72L592.551,1085.22L590.914,1082.71L589.306,1080.2L587.728,1077.69L586.179,1075.17L584.659,1072.64L583.169,1070.11L581.709,1067.58L580.278,1065.04L578.876,1062.5L577.504,1059.95L576.162,1057.4L574.85,1054.85L573.567,1052.29L572.313,1049.73L571.09,1047.16L569.896,1044.59L568.732,1042.02L567.598,1039.44L566.493,1036.86L565.419,1034.27L564.374,1031.68L563.36,1029.09L562.375,1026.5L561.42,1023.9L560.496,1021.3L559.601,1018.7L558.736,1016.09L557.902,1013.48L557.097,1010.87L556.323,1008.26L555.579,1005.64L554.865,1003.02L554.182,1000.4L553.528,997.776L552.905,995.15L552.313,992.521L551.75,989.891L551.219,987.258L550.717,984.624L550.246,981.987L549.805,979.349L549.395,976.709L549.016,974.067L548.667,971.424L548.348,968.78L548.061,966.134L547.804,963.486L547.577,960.838L547.381,958.188L547.216,955.537L547.082,952.885L546.979,950.233L546.906,947.579L546.864,944.925L546.854,942.27L546.874,939.614L546.925,936.958L547.006,934.301L547.119,931.644L547.263,928.986L547.438,926.329L547.645,923.671L547.882,921.013L548.15,918.355L548.45,915.698L548.78,913.04L549.142,910.383L549.536,907.726L549.96,905.069L550.416,902.413L550.903,899.757L551.422,897.102L551.972,894.448L552.553,891.795L553.166,889.142L553.81,886.49L554.486,883.84L555.193,881.19L555.932,878.542L556.703,875.895L557.505,873.249L558.339,870.604L559.205,867.961L560.102,865.32L561.031,862.68L561.992,860.042L562.984,857.406L564.009,854.772L565.065,852.14L566.153,849.509L567.274,846.881L568.426,844.255L569.61,841.631L570.826,839.01L572.074,836.391L573.354,833.774L574.667,831.161L576.011,828.549L577.388,825.941L578.796,823.335L580.237,820.732L581.711,818.132L583.216,815.536L584.754,812.942L586.324,810.352L587.927,807.764L589.561,805.18L591.229,802.6L592.928,800.023L594.661,797.45L596.425,794.88L598.223,792.314L600.052,789.752L601.915,787.194L603.81,784.64L605.738,782.09L607.698,779.544L609.691,777.002L611.717,774.465L613.775,771.932L615.867,769.403L617.991,766.879L620.148,764.36L622.338,761.845L624.561,759.335L626.816,756.829L629.105,754.329L631.427,751.834L633.782,749.344L636.169,746.859L638.59,744.379L641.044,741.904L643.531,739.435L646.052,736.971L648.605,734.513L651.192,732.061L653.812,729.614L656.465,727.173L659.152,724.738L661.872,722.308L664.625,719.885L667.412,717.468L670.232,715.057L673.086,712.652L675.973,710.254L678.893,707.862L681.847,705.476L684.835,703.097L687.856,700.725L690.911,698.359L694,696L697.598,693.292L701.22,690.604L704.866,687.936L708.537,685.289L712.231,682.663L715.95,680.057L719.692,677.472L723.458,674.907L727.248,672.363L731.063,669.84L734.901,667.337L738.762,664.855L742.648,662.393L746.557,659.952L750.49,657.532L754.447,655.133L758.428,652.754L762.432,650.396L766.46,648.058L770.511,645.742L774.586,643.446L778.684,641.171L782.806,638.916L786.951,636.683L791.12,634.47L795.312,632.278L799.527,630.106L803.766,627.956L808.028,625.826L812.313,623.718L816.621,621.63L820.953,619.563L825.308,617.516L829.686,615.491L834.087,613.487L838.511,611.503L842.958,609.54L847.428,607.599L851.922,605.678L856.438,603.778L860.977,601.9L865.539,600.042L870.123,598.205L874.731,596.389L879.361,594.594L884.014,592.82L888.69,591.068L893.389,589.336L898.11,587.625L902.854,585.936L907.62,584.267L912.409,582.62L917.22,580.993L922.054,579.388L926.911,577.804L931.79,576.241L936.691,574.699L941.615,573.179L946.561,571.679L951.529,570.201L956.52,568.744L961.533,567.308L966.568,565.893L971.625,564.5L976.704,563.128L981.806,561.777L986.93,560.447L992.075,559.139L997.243,557.852L1002.43,556.586L1007.64,555.341L1012.88,554.118L1018.13,552.916L1023.41,551.736L1028.71,550.577L1034.03,549.439L1039.37,548.322L1044.74,547.227L1050.12,546.154L1055.53,545.102L1060.96,544.071L1066.41,543.061L1071.89,542.074L1077.38,541.107L1082.9,540.162L1088.43,539.239L1093.99,538.337L1099.57,537.456L1110.8,535.76L1122.11,534.149L1133.5,532.625L1144.98,531.188L1156.55,529.836L1168.2,528.571L1179.93,527.393L1191.75,526.302L1203.65,525.297L1215.63,524.379L1227.7,523.548L1239.85,522.805L1252.08,522.148L1264.4,521.579L1276.79,521.097L1289.27,520.702L1301.83,520.395L1314.47,520.176L1327.2,520.044L1340,520L1350.91,520.025L1361.72,520.1L1372.41,520.226L1383.01,520.403L1393.49,520.632L1403.88,520.912L1414.17,521.245L1424.36,521.631L1434.45,522.07L1444.45,522.563L1454.36,523.11L1464.18,523.711L1473.91,524.368L1483.55,525.08L1493.11,525.848L1502.59,526.672L1511.99,527.553L1521.32,528.491L1530.56,529.487L1539.73,530.541L1548.83,531.653L1557.86,532.824L1566.83,534.055L1575.72,535.346L1584.56,536.696L1593.33,538.108L1602.03,539.58L1610.69,541.115L1619.28,542.711L1627.82,544.369L1636.31,546.09L1644.75,547.875L1653.14,549.723L1661.48,551.636L1669.78,553.613L1678.04,555.655L1686.26,557.763L1694.43,559.936L1702.58,562.176L1710.68,564.482L1718.76,566.856L1726.8,569.298L1734.82,571.807L1742.81,574.385L1750.77,577.032L1758.71,579.748L1766.63,582.534L1774.53,585.391L1782.42,588.318L1790.29,591.316L1798.14,594.385L1805.99,597.527L1813.83,600.741L1821.65,604.028L1829.48,607.388L1837.3,610.822L1845.12,614.33L1852.94,617.913L1860.77,621.571L1868.6,625.304L1876.43,629.113L1884.28,632.998L1892.13,636.961L1900,641L1995,690L1950,648L1945.56,643.961L1941.08,639.952L1936.57,635.974L1932.04,632.027L1927.47,628.111L1922.87,624.226L1918.24,620.372L1913.58,616.548L1908.89,612.755L1904.17,608.994L1899.42,605.263L1894.64,601.563L1889.82,597.894L1884.98,594.256L1880.11,590.648L1875.2,587.072L1870.27,583.527L1865.31,580.013L1860.31,576.53L1855.29,573.078L1850.23,569.657L1845.15,566.267L1840.03,562.908L1834.89,559.58L1829.71,556.283L1824.51,553.017L1819.27,549.783L1814,546.58L1808.71,543.408L1803.38,540.267L1798.03,537.157L1792.64,534.078L1787.23,531.031L1781.78,528.015L1776.3,525.03L1770.8,522.076L1765.26,519.154L1759.7,516.263L1754.1,513.403L1748.48,510.574L1742.82,507.777L1737.14,505.012L1731.42,502.277L1725.68,499.574L1719.91,496.903L1714.11,494.262L1708.27,491.654L1702.41,489.076L1696.52,486.53L1690.6,484.016L1684.65,481.533L1678.67,479.081L1672.66,476.661L1666.62,474.273L1660.55,471.916L1654.46,469.591L1648.33,467.297L1642.17,465.035L1635.99,462.804L1629.78,460.605L1623.53,458.437L1617.26,456.302L1610.96,454.197L1604.62,452.125L1598.27,450.084L1591.88,448.075L1585.46,446.098L1579.01,444.152L1572.53,442.238L1566.03,440.356L1559.49,438.505L1552.93,436.687L1546.34,434.9L1539.72,433.145L1533.07,431.422L1526.39,429.73L1519.68,428.071L1512.94,426.443L1506.18,424.847L1499.38,423.283L1492.56,421.751L1485.71,420.251L1478.83,418.783L1471.92,417.347L1464.99,415.942L1458.02,414.57L1451.03,413.23L1444,411.922L1436.95,410.645L1429.87,409.401L1422.76,408.189L1415.63,407.009L1408.46,405.861L1401.27,404.745L1394.05,403.661L1386.8,402.609L1379.52,401.59L1372.21,400.602L1364.88,399.647L1357.51,398.724L1350.12,397.833L1342.7,396.974L1335.26,396.148L1327.78,395.354L1320.28,394.592L1312.75,393.862L1305.18,393.165L1297.6,392.499L1289.98,391.867L1282.34,391.266L1274.67,390.698L1266.97,390.162L1259.24,389.659L1251.48,389.188L1243.7,388.749L1235.89,388.343L1228.05,387.969L1220.18,387.627L1212.29,387.318L1204.37,387.042L1196.42,386.798L1188.44,386.586L1180.44,386.407L1172.4,386.261L1164.35,386.147L1156.26,386.065L1148.14,386.016L1140,386L1130.46,386.012L1121.07,386.048L1111.81,386.108L1102.69,386.193L1093.71,386.304L1084.85,386.442L1076.11,386.606L1067.5,386.797L1059,387.016L1050.62,387.263L1042.34,387.54L1034.17,387.846L1026.11,388.182L1018.14,388.548L1010.27,388.946L1002.48,389.375L994.79,389.837L987.18,390.331L979.65,390.858L972.196,391.42L964.815,392.016L957.503,392.647L950.257,393.313L943.072,394.016L935.946,394.755L928.873,395.531L921.852,396.345L914.877,397.197L907.946,398.088L901.054,399.019L894.198,399.989L887.375,401L880.58,402.052L873.81,403.145L867.061,404.281L860.33,405.459L853.612,406.68L846.905,407.946L840.204,409.255L833.506,410.609L826.807,412.009L820.103,413.455L813.391,414.947L806.667,416.486L799.928,418.073L793.169,419.708L786.387,421.392L779.578,423.125L772.739,424.908L765.866,426.741L758.955,428.625L752.003,430.561L745.005,432.548L737.959,434.588L730.86,436.681L723.705,438.828L716.49,441.029L709.212,443.285L701.866,445.596L694.449,447.963L686.958,450.386L679.389,452.866L671.737,455.404L664,458L654.242,461.361L644.563,464.787L634.962,468.278L625.442,471.833L616.002,475.452L606.643,479.134L597.367,482.878L588.174,486.684L579.064,490.55L570.039,494.478L561.099,498.465L552.245,502.512L543.477,506.618L534.798,510.782L526.206,515.003L517.703,519.281L509.29,523.616L500.968,528.007L492.736,532.452L484.597,536.953L476.55,541.507L468.597,546.115L460.738,550.775L452.975,555.488L445.307,560.253L437.735,565.068L430.261,569.934L422.885,574.85L415.607,579.815L408.429,584.829L401.352,589.891L394.375,595L390.925,597.572L387.5,600.156L384.101,602.752L380.728,605.359L377.381,607.977L374.059,610.607L370.764,613.248L367.494,615.9L364.251,618.563L361.034,621.238L357.844,623.923L354.68,626.619L351.543,629.326L348.432,632.044L345.348,634.773L342.291,637.512L339.261,640.261L336.258,643.021L333.282,645.792L330.333,648.573L327.412,651.364L324.518,654.165L321.652,656.976L318.813,659.797L316.002,662.629L313.219,665.47L310.464,668.32L307.737,671.181L305.037,674.051L302.366,676.931L299.724,679.82L297.109,682.719L294.524,685.627L291.966,688.544L289.438,691.47L286.938,694.406L284.467,697.351L282.025,700.304L279.612,703.267L277.228,706.238L274.873,709.218L272.548,712.206L270.252,715.204L267.985,718.21L265.749,721.224L263.542,724.246L261.364,727.277L259.217,730.316L257.099,733.364L255.012,736.419L252.955,739.482L250.928,742.554L248.931,745.633L246.965,748.72L245.03,751.814L243.125,754.917L241.251,758.026L239.407,761.144L237.595,764.268L235.813,767.4L234.063,770.539L232.344,773.686L230.656,776.839L229,780L226.175,785.488L223.51,790.718L220.999,795.712L218.639,800.492L216.424,805.082L214.351,809.505L212.414,813.782L210.609,817.938L208.932,821.993L207.378,825.972L205.942,829.896L205.266,831.845L204.619,833.789L203.999,835.731L203.406,837.673L202.839,839.619L202.297,841.571L201.781,843.533L201.288,845.506L200.82,847.494L200.375,849.5L199.953,851.526L199.552,853.576L199.174,855.652L198.816,857.757L198.479,859.894L198.162,862.065L197.584,866.523L197.079,871.155L196.642,875.981L196.268,881.026L195.953,886.313L195.692,891.862L195.481,897.698L195.315,903.843L195.189,910.32L195.1,917.152L195.041,924.36L195.01,931.969L195,940L195.012,947.6L195.051,954.847L195.118,961.759L195.217,968.354L195.35,974.647L195.521,980.656L195.731,986.398L195.984,991.891L196.283,997.15L196.63,1002.19L197.027,1007.04L197.479,1011.7L197.986,1016.2L198.553,1020.55L199.182,1024.77L199.875,1028.88L200.636,1032.88L201.467,1036.81L202.37,1040.68L203.35,1044.5L204.407,1048.3L205.546,1052.08L206.769,1055.86L208.078,1059.67L209.477,1063.52L210.968,1067.43L212.553,1071.4L214.236,1075.47L216.02,1079.65L217.906,1083.95L219.899,1088.4L222,1093L223.283,1095.67L224.6,1098.35L225.951,1101.03L227.335,1103.72L228.754,1106.41L230.205,1109.1L231.69,1111.79L233.207,1114.49L234.757,1117.19L236.339,1119.89L237.954,1122.59L239.6,1125.3L241.278,1128L242.988,1130.71L244.728,1133.42L246.5,1136.13L248.302,1138.85L250.135,1141.56L251.999,1144.27L253.892,1146.98L257.768,1152.41L261.762,1157.84L265.871,1163.26L270.094,1168.68L274.43,1174.09L278.875,1179.5L283.429,1184.9L288.089,1190.29L292.855,1195.66L297.723,1201.02L302.692,1206.37L307.76,1211.7L312.926,1217.01L318.188,1222.31L323.543,1227.58L328.99,1232.83L334.527,1238.05L340.152,1243.25L345.864,1248.42L351.661,1253.56L357.54,1258.67L363.5,1263.75L369.539,1268.8L375.656,1273.81L381.848,1278.78L388.113,1283.71L394.451,1288.61L400.858,1293.46L407.333,1298.27L413.875,1303.04L420.481,1307.76L427.15,1312.43L433.879,1317.05L440.668,1321.63L447.514,1326.15L454.415,1330.61L461.369,1335.02L468.375,1339.38L475.431,1343.67L482.535,1347.9L489.685,1352.08L496.879,1356.19L504.116,1360.23L511.393,1364.21L518.709,1368.12L526.063,1371.96L533.451,1375.73L540.873,1379.43L548.326,1383.05L555.809,1386.6L563.319,1390.07L570.856,1393.46L578.417,1396.77L586,1400L589.936,1401.6L593.96,1403.2L602.263,1406.44L610.89,1409.69L619.82,1412.97L629.035,1416.26L638.515,1419.55L648.239,1422.85L658.188,1426.14L668.341,1429.42L678.681,1432.69L689.185,1435.93L699.836,1439.15L710.612,1442.33L721.495,1445.47L732.464,1448.58L743.5,1451.62L754.583,1454.62L765.692,1457.55L776.809,1460.42L787.914,1463.21L798.986,1465.93L810.007,1468.56L820.955,1471.1L831.813,1473.55L842.558,1475.89L853.173,1478.13L863.637,1480.26L873.93,1482.26L884.032,1484.15L893.925,1485.9L903.587,1487.52L908.326,1488.28L913,1489L916.431,1489.46L920.337,1489.91L924.702,1490.35L929.508,1490.78L934.739,1491.19L940.378,1491.58L946.408,1491.96L952.813,1492.33L959.574,1492.68L966.677,1493.01L974.103,1493.33L981.836,1493.62L989.859,1493.9L998.155,1494.16L1006.71,1494.4L1015.5,1494.62L1024.52,1494.83L1033.74,1495.01L1043.14,1495.16L1052.73,1495.3L1062.46,1495.41L1072.34,1495.5L1082.34,1495.57L1092.44,1495.61L1102.63,1495.63L1112.89,1495.62ZM1092.58,1446.61L1082.6,1446.56L1072.72,1446.5L1062.97,1446.41L1053.36,1446.3L1043.9,1446.16L1034.62,1446.01L1025.54,1445.83L1016.66,1445.63L1008.01,1445.42L999.614,1445.18L991.48,1444.92L983.631,1444.65L976.085,1444.36L968.863,1444.05L961.985,1443.73L955.472,1443.4L949.349,1443.05L943.639,1442.69L938.372,1442.32L933.579,1441.94L929.302,1441.56L925.59,1441.19L922.514,1440.84L920.013,1440.5L915.93,1439.87L911.504,1439.16L902.254,1437.61L892.803,1435.93L883.112,1434.13L873.206,1432.19L863.107,1430.14L852.838,1427.98L842.422,1425.7L831.881,1423.33L821.237,1420.86L810.512,1418.3L799.728,1415.65L788.905,1412.93L778.065,1410.14L767.229,1407.28L756.419,1404.35L745.656,1401.38L734.961,1398.36L724.356,1395.29L713.86,1392.19L703.497,1389.06L693.288,1385.91L683.254,1382.74L673.417,1379.56L663.8,1376.38L654.424,1373.2L645.314,1370.04L636.492,1366.89L627.982,1363.77L619.81,1360.68L611.935,1357.62L608.237,1356.14L604.819,1354.75L597.845,1351.78L590.739,1348.67L583.651,1345.48L576.582,1342.21L569.535,1338.87L562.511,1335.46L555.513,1331.97L548.543,1328.42L541.604,1324.79L534.697,1321.1L527.823,1317.34L520.987,1313.52L514.189,1309.64L507.431,1305.69L500.717,1301.69L494.046,1297.63L487.423,1293.52L480.849,1289.35L474.326,1285.13L467.856,1280.86L461.441,1276.53L455.083,1272.17L448.785,1267.75L442.548,1263.3L436.374,1258.8L430.265,1254.26L424.224,1249.69L418.253,1245.07L412.353,1240.43L406.526,1235.75L400.776,1231.04L395.102,1226.3L389.509,1221.53L383.997,1216.74L378.569,1211.92L373.226,1207.09L367.972,1202.23L362.807,1197.36L357.733,1192.47L352.754,1187.57L347.87,1182.65L343.084,1177.73L338.398,1172.8L333.813,1167.87L329.332,1162.94L324.956,1158L320.689,1153.07L316.53,1148.14L312.483,1143.21L308.548,1138.3L304.729,1133.4L301.027,1128.51L297.443,1123.64L293.926,1118.72L292.291,1116.38L290.635,1113.97L289.011,1111.56L287.417,1109.16L285.855,1106.77L284.324,1104.39L282.825,1102.02L281.357,1099.65L279.922,1097.29L278.519,1094.94L277.148,1092.6L275.81,1090.27L274.504,1087.95L273.231,1085.64L271.991,1083.34L270.784,1081.05L269.61,1078.78L268.469,1076.51L267.362,1074.26L266.385,1072.22L264.547,1068.2L262.704,1064.09L260.994,1060.19L259.414,1056.49L257.959,1052.97L256.623,1049.62L255.4,1046.41L254.282,1043.34L253.261,1040.37L252.329,1037.48L251.475,1034.64L250.692,1031.84L249.97,1029.02L249.303,1026.17L248.686,1023.25L248.113,1020.23L247.581,1017.08L247.089,1013.77L246.634,1010.28L246.217,1006.59L245.838,1002.67L245.496,998.509L245.192,994.081L244.925,989.374L244.694,984.373L244.5,979.063L244.34,973.432L244.213,967.467L244.119,961.153L244.054,954.479L244.016,947.431L244.004,939.99L244.014,932.1L244.045,924.661L244.101,917.672L244.188,911.117L244.307,904.981L244.462,899.246L244.655,893.898L244.889,888.92L245.165,884.294L245.483,880.002L245.843,876.021L246.246,872.328L246.709,868.757L246.928,867.257L247.176,865.681L247.436,864.153L247.707,862.669L247.989,861.221L248.284,859.807L248.592,858.42L248.914,857.054L249.251,855.703L249.604,854.363L249.975,853.026L250.365,851.688L250.776,850.342L251.21,848.983L251.668,847.607L252.107,846.338L253.215,843.31L254.401,840.275L255.729,837.064L257.211,833.651L258.859,830.013L260.679,826.13L262.678,821.986L264.861,817.565L267.231,812.85L269.791,807.829L272.489,802.588L273.963,799.775L275.45,796.996L276.967,794.22L278.513,791.446L280.089,788.676L281.694,785.909L283.328,783.146L284.991,780.386L286.684,777.629L288.406,774.876L290.157,772.127L291.937,769.381L293.747,766.639L295.585,763.901L297.453,761.168L299.35,758.438L301.275,755.712L303.23,752.992L305.214,750.275L307.226,747.563L309.268,744.855L311.338,742.153L313.437,739.455L315.565,736.762L317.721,734.074L319.906,731.392L322.12,728.715L324.362,726.043L326.633,723.376L328.932,720.716L331.259,718.061L333.615,715.411L335.999,712.768L338.411,710.131L340.852,707.5L343.32,704.875L345.817,702.256L348.341,699.645L350.893,697.039L353.474,694.44L356.081,691.848L358.717,689.264L361.38,686.686L364.071,684.115L366.789,681.551L369.534,678.995L372.307,676.447L375.108,673.906L377.935,671.372L380.789,668.847L383.671,666.329L386.58,663.82L389.515,661.319L392.477,658.825L395.466,656.34L398.481,653.864L401.523,651.396L404.592,648.937L407.686,646.487L410.807,644.046L413.955,641.613L417.129,639.19L420.328,636.775L423.498,634.412L430.083,629.59L436.714,624.847L443.448,620.144L450.282,615.481L457.218,610.859L464.253,606.278L471.388,601.741L478.621,597.246L485.952,592.797L493.379,588.392L500.903,584.032L508.523,579.72L516.237,575.455L524.045,571.238L531.946,567.069L539.939,562.951L548.024,558.883L556.2,554.866L564.467,550.9L572.822,546.988L581.266,543.128L589.797,539.323L598.415,535.573L607.12,531.878L615.91,528.239L624.784,524.657L633.743,521.133L642.784,517.667L651.907,514.26L661.112,510.913L670.398,507.626L679.773,504.397L687.244,501.891L694.732,499.407L702.129,496.983L709.44,494.618L716.669,492.311L723.819,490.062L730.893,487.869L737.896,485.733L744.832,483.652L751.703,481.626L758.514,479.654L765.269,477.735L771.971,475.869L778.625,474.055L785.234,472.293L791.803,470.58L798.334,468.918L804.834,467.304L811.304,465.739L817.75,464.221L824.177,462.75L830.586,461.325L836.984,459.945L843.373,458.61L849.759,457.319L856.146,456.071L862.537,454.866L868.938,453.702L875.351,452.579L881.783,451.497L888.235,450.455L894.714,449.452L901.223,448.488L907.767,447.562L914.349,446.673L920.973,445.821L927.645,445.006L934.368,444.227L941.147,443.483L947.984,442.773L954.885,442.099L961.853,441.458L968.893,440.851L976.009,440.276L983.203,439.734L990.48,439.224L997.846,438.746L1005.3,438.298L1012.85,437.882L1020.5,437.496L1028.25,437.139L1036.11,436.812L1044.08,436.514L1052.16,436.244L1060.36,436.002L1068.67,435.787L1077.12,435.6L1085.69,435.439L1094.39,435.304L1103.23,435.195L1112.2,435.111L1121.32,435.051L1130.59,435.016L1139.98,435.004L1147.95,435.02L1155.86,435.068L1163.75,435.147L1171.61,435.259L1179.44,435.401L1187.25,435.576L1195.02,435.782L1202.76,436.02L1210.48,436.289L1218.16,436.59L1225.82,436.922L1233.45,437.286L1241.05,437.682L1248.62,438.108L1256.16,438.566L1263.67,439.056L1271.15,439.576L1278.61,440.129L1286.03,440.712L1293.43,441.326L1300.79,441.972L1308.13,442.649L1315.44,443.357L1322.72,444.096L1329.96,444.866L1337.18,445.667L1344.37,446.499L1351.53,447.362L1358.66,448.256L1365.77,449.181L1372.84,450.137L1379.88,451.123L1386.89,452.141L1393.88,453.189L1400.83,454.267L1407.75,455.377L1414.65,456.517L1421.51,457.687L1428.35,458.889L1435.15,460.12L1441.93,461.382L1448.67,462.675L1455.39,463.998L1462.07,465.351L1468.73,466.735L1475.36,468.149L1481.95,469.594L1488.52,471.068L1495.06,472.573L1501.56,474.108L1508.04,475.673L1514.49,477.268L1520.9,478.893L1522.83,479.391L1516.73,478.778L1507,477.866L1497.2,477.013L1487.32,476.22L1477.36,475.485L1467.32,474.808L1457.21,474.188L1447.01,473.625L1436.72,473.118L1426.35,472.667L1415.89,472.271L1405.33,471.929L1394.69,471.642L1383.95,471.408L1373.11,471.226L1362.18,471.098L1351.14,471.021L1339.97,470.995L1326.86,471.04L1313.8,471.176L1300.81,471.401L1287.9,471.717L1275.07,472.122L1262.31,472.618L1249.64,473.204L1237.04,473.881L1224.52,474.647L1212.08,475.504L1199.72,476.45L1187.43,477.487L1175.23,478.615L1163.11,479.832L1151.06,481.14L1139.1,482.538L1127.21,484.026L1115.41,485.605L1103.68,487.274L1092.09,489.026L1086.25,489.948L1080.48,490.884L1074.73,491.843L1069,492.825L1063.29,493.829L1057.6,494.856L1051.93,495.906L1046.28,496.978L1040.66,498.073L1035.05,499.19L1029.46,500.331L1023.9,501.494L1018.35,502.679L1012.83,503.888L1007.32,505.119L1001.84,506.373L996.378,507.65L990.936,508.949L985.515,510.271L980.115,511.616L974.737,512.984L969.379,514.374L964.042,515.788L958.726,517.223L953.431,518.682L948.158,520.164L942.905,521.668L937.674,523.196L932.464,524.746L927.276,526.319L922.109,527.915L916.962,529.534L911.838,531.175L906.735,532.84L901.653,534.527L896.593,536.238L891.554,537.971L886.537,539.727L881.541,541.507L876.568,543.309L871.616,545.134L866.685,546.982L861.778,548.853L856.892,550.747L852.027,552.664L847.184,554.604L842.364,556.567L837.566,558.553L832.79,560.562L828.035,562.595L823.304,564.65L818.594,566.728L813.907,568.83L809.243,570.954L804.6,573.102L799.98,575.273L795.384,577.466L790.808,579.683L786.257,581.923L781.728,584.186L777.221,586.473L772.738,588.782L768.277,591.115L763.839,593.47L759.425,595.849L755.034,598.251L750.665,600.676L746.319,603.125L741.998,605.596L737.699,608.09L733.424,610.608L729.172,613.149L724.944,615.713L720.74,618.3L716.559,620.911L712.402,623.544L708.268,626.201L704.159,628.881L700.073,631.584L696.012,634.31L691.975,637.059L687.961,639.831L683.972,642.627L680.008,645.445L676.067,648.287L672.151,651.152L668.26,654.039L664.392,656.951L661.037,659.513L657.722,662.08L654.44,664.657L651.19,667.245L647.974,669.843L644.79,672.45L641.638,675.068L638.52,677.696L635.434,680.334L632.382,682.982L629.362,685.64L626.374,688.308L623.42,690.986L620.498,693.674L617.609,696.372L614.754,699.08L611.93,701.797L609.14,704.525L606.383,707.262L603.659,710.009L600.968,712.766L598.31,715.532L595.685,718.308L593.093,721.094L590.534,723.889L588.008,726.694L585.516,729.509L583.056,732.333L580.63,735.167L578.238,738.01L575.879,740.862L573.553,743.724L571.261,746.595L569.002,749.475L566.777,752.366L564.585,755.265L562.428,758.172L560.304,761.09L558.214,764.016L556.158,766.951L554.136,769.896L552.148,772.849L550.195,775.811L548.275,778.781L546.39,781.761L544.539,784.748L542.723,787.745L540.941,790.75L539.195,793.763L537.482,796.784L535.805,799.814L534.163,802.851L532.556,805.897L530.984,808.95L529.447,812.012L527.945,815.08L526.479,818.157L525.049,821.24L523.653,824.331L522.294,827.43L520.971,830.535L519.683,833.647L518.432,836.765L517.216,839.891L516.037,843.022L514.894,846.16L513.788,849.304L512.718,852.454L511.685,855.609L510.688,858.77L509.728,861.937L508.805,865.108L507.918,868.284L507.069,871.465L506.257,874.651L505.481,877.841L504.744,881.035L504.043,884.233L503.38,887.434L502.754,890.639L502.165,893.847L501.614,897.058L501.1,900.272L500.624,903.489L500.186,906.707L499.785,909.928L499.422,913.15L499.097,916.373L498.809,919.598L498.559,922.824L498.346,926.051L498.171,929.278L498.034,932.505L497.935,935.732L497.873,938.959L497.848,942.185L497.862,945.41L497.912,948.635L498,951.857L498.126,955.079L498.289,958.298L498.489,961.515L498.727,964.73L499.001,967.942L499.313,971.151L499.662,974.358L500.047,977.56L500.47,980.759L500.929,983.955L501.424,987.146L501.957,990.333L502.525,993.515L503.13,996.693L503.771,999.865L504.448,1003.03L505.161,1006.2L505.91,1009.35L506.694,1012.5L507.514,1015.65L508.369,1018.78L509.26,1021.92L510.186,1025.04L511.146,1028.16L512.142,1031.27L513.172,1034.38L514.236,1037.48L515.336,1040.57L516.469,1043.65L517.636,1046.72L518.837,1049.79L520.072,1052.85L521.341,1055.9L522.643,1058.95L523.979,1061.98L525.348,1065.01L526.749,1068.03L528.184,1071.04L529.652,1074.04L531.152,1077.03L532.684,1080.01L534.249,1082.98L535.846,1085.95L537.475,1088.9L539.136,1091.85L540.829,1094.79L542.553,1097.71L544.309,1100.63L546.097,1103.54L547.915,1106.44L549.765,1109.33L551.646,1112.21L553.557,1115.08L555.5,1117.93L557.473,1120.78L559.476,1123.62L561.51,1126.45L563.575,1129.27L565.669,1132.08L567.793,1134.88L569.948,1137.67L572.132,1140.45L574.347,1143.21L576.59,1145.97L578.863,1148.72L581.166,1151.45L583.498,1154.18L585.86,1156.9L588.25,1159.6L590.67,1162.3L593.119,1164.98L595.597,1167.65L598.104,1170.32L600.639,1172.97L603.203,1175.61L605.796,1178.24L608.417,1180.86L611.067,1183.47L613.745,1186.07L616.452,1188.66L619.186,1191.23L621.949,1193.8L624.805,1196.41L630.406,1201.43L636.184,1206.46L642.074,1211.45L648.074,1216.39L654.185,1221.29L660.406,1226.14L666.737,1230.94L673.177,1235.71L679.726,1240.42L686.383,1245.09L693.149,1249.71L700.023,1254.29L707.004,1258.81L714.093,1263.29L721.289,1267.73L728.592,1272.11L736.001,1276.45L743.516,1280.73L751.137,1284.97L758.864,1289.16L766.697,1293.3L774.635,1297.38L782.677,1301.42L790.825,1305.41L799.077,1309.34L807.434,1313.23L815.894,1317.06L824.459,1320.83L833.127,1324.56L841.899,1328.23L850.774,1331.84L859.752,1335.41L868.833,1338.91L878.017,1342.36L887.303,1345.76L896.691,1349.1L906.256,1352.41L913.729,1354.89L921.232,1357.31L928.821,1359.69L936.493,1362.02L944.246,1364.3L952.08,1366.54L959.99,1368.73L967.976,1370.88L976.035,1372.98L984.166,1375.04L992.366,1377.05L1000.63,1379.01L1008.97,1380.93L1017.36,1382.81L1025.82,1384.63L1034.33,1386.42L1042.9,1388.15L1051.52,1389.85L1060.2,1391.49L1068.92,1393.09L1077.7,1394.64L1086.51,1396.15L1095.37,1397.61L1104.27,1399.02L1113.21,1400.38L1122.19,1401.7L1131.2,1402.97L1140.24,1404.19L1149.31,1405.36L1158.4,1406.49L1167.52,1407.56L1176.67,1408.59L1185.83,1409.57L1195.01,1410.49L1204.2,1411.37L1213.41,1412.2L1222.63,1412.98L1231.86,1413.71L1241.09,1414.38L1250.33,1415.01L1259.57,1415.58L1268.8,1416.11L1278.04,1416.58L1287.27,1416.99L1296.49,1417.36L1305.7,1417.67L1314.9,1417.93L1324.08,1418.14L1333.25,1418.29L1342.39,1418.38L1351.52,1418.43L1360.62,1418.41L1369.69,1418.35L1378.74,1418.22L1387.76,1418.04L1396.74,1417.81L1405.69,1417.51L1414.6,1417.16L1423.47,1416.75L1432.3,1416.29L1441.09,1415.76L1449.83,1415.18L1458.52,1414.53L1466.95,1413.85L1502.92,1410.95L1496.4,1412.67L1487.52,1414.95L1478.61,1417.17L1469.8,1419.29L1461.8,1421.12L1453.89,1422.89L1446.23,1424.56L1438.79,1426.12L1431.54,1427.6L1424.43,1428.99L1417.44,1430.29L1410.53,1431.52L1403.66,1432.67L1396.79,1433.75L1389.89,1434.76L1382.92,1435.71L1375.83,1436.6L1368.6,1437.43L1361.18,1438.21L1353.54,1438.95L1345.63,1439.64L1337.44,1440.28L1328.92,1440.88L1320.04,1441.44L1310.77,1441.97L1301.07,1442.46L1290.92,1442.92L1280.29,1443.34L1269.14,1443.74L1257.45,1444.12L1245.18,1444.47L1232.3,1444.81L1218.79,1445.12L1204.63,1445.43L1174.13,1446L1163.92,1446.17L1153.69,1446.32L1143.44,1446.43L1133.2,1446.52L1122.98,1446.58L1112.78,1446.61L1102.65,1446.62L1092.58,1446.61ZM1599,1380.29L1599.8,1381.08L1599,1381.36L1599,1380.29Z" style="fill:rgb(107,60,65);"/>
        </g>
        <g transform="matrix(0.306095,0,0,0.306095,804.565,613.275)">
            <path d="M1234,1110C1222,1106 1203,1089 1191,1074C1173,1051 1170,1034 1170,939C1170,833 1171,829 1199,798C1227,767 1232,765 1309,762L1390,758L1390,729C1390,690 1366,680 1271,680C1226,680 1190,677 1190,673C1190,668 1193,655 1196,643C1202,621 1207,620 1302,620C1399,620 1402,621 1431,649L1460,678L1460,889C1460,1005 1461,1103 1463,1108C1466,1118 1259,1121 1234,1110ZM1390,940L1390,830L1327,830C1291,830 1259,835 1252,842C1236,858 1236,1022 1252,1038C1259,1045 1291,1050 1327,1050L1390,1050L1390,940Z" style="fill:rgb(255,200,170);fill-rule:nonzero;"/>
            <path d="M1348.75,1116.96L1359,1116.88L1369.17,1116.73L1379.18,1116.52L1388.96,1116.25L1398.45,1115.93L1407.57,1115.55L1416.25,1115.11L1424.42,1114.62L1432,1114.08L1435.55,1113.79L1438.93,1113.48L1442.12,1113.17L1445.12,1112.84L1447.93,1112.5L1450.52,1112.15L1452.9,1111.78L1455.05,1111.41L1456.96,1111.02L1458.63,1110.62L1460.05,1110.21L1460.65,1110L1461.2,1109.79L1461.67,1109.58L1462.08,1109.36L1462.41,1109.14L1462.68,1108.92L1462.87,1108.69L1462.99,1108.46L1463.03,1108.23L1463,1108L1462.91,1107.7L1462.82,1107.26L1462.64,1105.99L1462.46,1104.2L1462.3,1101.91L1462.14,1099.13L1461.98,1095.87L1461.69,1087.98L1461.42,1078.36L1461.17,1067.1L1460.95,1054.32L1460.75,1040.12L1460.57,1024.63L1460.42,1007.95L1460.29,990.188L1460.19,971.453L1460.11,951.857L1460.05,931.51L1460,889L1460,678L1431,649L1428.35,646.453L1425.84,644.06L1423.43,641.815L1421.11,639.715L1418.85,637.753L1416.64,635.926L1414.44,634.229L1413.35,633.427L1412.25,632.656L1411.14,631.915L1410.03,631.204L1408.91,630.521L1407.77,629.867L1406.61,629.24L1405.44,628.64L1404.24,628.067L1403.02,627.52L1401.77,626.997L1400.48,626.5L1399.17,626.027L1397.82,625.577L1396.43,625.15L1395,624.745L1393.52,624.362L1392,624L1390.43,623.659L1388.8,623.337L1387.12,623.035L1385.38,622.751L1383.59,622.486L1381.72,622.238L1377.8,621.793L1373.58,621.411L1369.06,621.086L1364.21,620.816L1359,620.594L1353.42,620.416L1347.44,620.277L1341.04,620.172L1334.2,620.098L1319.12,620.018L1302,620L1285.22,620.017L1270.42,620.086L1263.71,620.15L1257.45,620.237L1251.62,620.353L1246.2,620.5L1241.18,620.682L1236.53,620.903L1232.24,621.167L1228.3,621.477L1224.68,621.836L1221.37,622.249L1219.83,622.477L1218.36,622.719L1216.96,622.977L1215.62,623.25L1214.36,623.539L1213.15,623.845L1212.01,624.168L1210.92,624.509L1209.89,624.867L1208.92,625.244L1208,625.64L1207.13,626.055L1206.31,626.489L1205.53,626.944L1204.8,627.42L1204.11,627.917L1203.46,628.435L1202.85,628.976L1202.28,629.539L1201.73,630.125L1201.23,630.734L1200.75,631.368L1200.3,632.025L1199.87,632.708L1199.47,633.416L1199.09,634.149L1198.73,634.909L1198.38,635.695L1197.74,637.35L1197.13,639.116L1196.56,640.998L1196,643L1194.88,647.529L1193.8,652.047L1192.78,656.447L1191.88,660.625L1191.11,664.475L1190.79,666.243L1190.52,667.891L1190.3,669.403L1190.13,670.768L1190.03,671.971L1190,673L1190.03,673.187L1190.11,673.372L1190.24,673.556L1190.41,673.738L1190.65,673.918L1190.93,674.097L1191.63,674.449L1192.53,674.794L1193.62,675.131L1194.88,675.461L1196.33,675.781L1197.94,676.093L1199.72,676.396L1201.66,676.689L1203.76,676.973L1206.01,677.246L1208.41,677.508L1213.62,678L1219.37,678.445L1225.6,678.84L1232.27,679.182L1239.36,679.469L1246.82,679.697L1254.6,679.863L1262.67,679.965L1271,680L1279.7,680.03L1287.99,680.122L1295.88,680.279L1303.39,680.506L1310.51,680.805L1313.93,680.983L1317.26,681.18L1320.5,681.397L1323.64,681.634L1326.7,681.893L1329.67,682.172L1332.56,682.473L1335.35,682.796L1338.07,683.141L1340.7,683.51L1343.24,683.901L1345.71,684.317L1348.09,684.756L1350.4,685.221L1352.63,685.71L1354.78,686.225L1356.85,686.766L1358.85,687.333L1360.78,687.927L1362.63,688.549L1364.41,689.198L1366.12,689.875L1367.77,690.581L1369.34,691.316L1370.84,692.08L1372.28,692.874L1373.66,693.698L1374.97,694.553L1376.21,695.44L1377.4,696.357L1378.52,697.307L1379.58,698.29L1380.59,699.305L1381.53,700.354L1382.42,701.436L1383.26,702.553L1384.04,703.704L1384.77,704.891L1385.44,706.113L1386.06,707.37L1386.63,708.665L1387.16,709.996L1387.63,711.364L1388.06,712.77L1388.44,714.214L1388.78,715.697L1389.08,717.219L1389.33,718.78L1389.54,720.381L1389.71,722.023L1389.84,723.705L1389.93,725.428L1389.98,727.193L1390,729L1390,758L1309,762L1295.38,762.558L1289.16,762.842L1283.31,763.137L1277.82,763.447L1272.65,763.78L1267.81,764.139L1263.27,764.531L1259,764.961L1255.01,765.435L1251.26,765.958L1247.74,766.535L1246.06,766.846L1244.43,767.173L1242.86,767.515L1241.33,767.875L1239.84,768.253L1238.39,768.649L1236.99,769.065L1235.62,769.5L1234.3,769.956L1233,770.433L1231.73,770.931L1230.5,771.453L1229.29,771.997L1228.11,772.566L1226.95,773.159L1225.81,773.777L1224.68,774.422L1223.58,775.093L1222.49,775.791L1221.41,776.518L1220.34,777.273L1219.28,778.058L1218.23,778.873L1217.17,779.719L1215.07,781.505L1212.95,783.423L1210.8,785.478L1208.61,787.676L1206.35,790.021L1204,792.52L1201.56,795.178L1199,798L1196.45,800.831L1194.06,803.528L1191.82,806.113L1189.71,808.611L1187.75,811.046L1185.93,813.44L1185.06,814.63L1184.23,815.818L1183.43,817.008L1182.66,818.203L1181.91,819.406L1181.2,820.619L1180.52,821.846L1179.87,823.089L1179.24,824.352L1178.64,825.637L1178.07,826.948L1177.52,828.287L1177,829.658L1176.5,831.062L1176.03,832.504L1175.58,833.986L1175.15,835.511L1174.75,837.082L1174.36,838.703L1174,840.375L1173.66,842.102L1173.34,843.887L1173.04,845.733L1172.75,847.643L1172.49,849.619L1172.24,851.665L1171.79,855.979L1171.41,860.606L1171.09,865.571L1170.82,870.898L1170.59,876.609L1170.42,882.73L1170.28,889.282L1170.17,896.291L1170.1,903.779L1170.02,920.289L1170,939L1170.04,955.919L1170.09,963.731L1170.16,971.133L1170.27,978.139L1170.4,984.765L1170.56,991.026L1170.75,996.938L1170.98,1002.51L1171.25,1007.77L1171.55,1012.73L1171.9,1017.4L1172.29,1021.79L1172.73,1025.93L1173.21,1029.83L1173.75,1033.5L1174.34,1036.96L1174.98,1040.22L1175.68,1043.31L1176.06,1044.79L1176.44,1046.23L1176.85,1047.63L1177.27,1049L1177.7,1050.33L1178.15,1051.63L1178.62,1052.9L1179.11,1054.15L1179.61,1055.37L1180.12,1056.56L1180.66,1057.74L1181.21,1058.89L1182.38,1061.14L1183.62,1063.34L1184.93,1065.49L1186.32,1067.62L1187.8,1069.74L1189.36,1071.86L1191,1074L1193.33,1076.83L1195.8,1079.69L1198.4,1082.55L1201.09,1085.39L1203.87,1088.19L1206.71,1090.93L1209.6,1093.58L1212.5,1096.12L1213.95,1097.35L1215.4,1098.54L1216.85,1099.69L1218.29,1100.81L1219.71,1101.88L1221.13,1102.9L1222.53,1103.87L1223.91,1104.8L1225.27,1105.67L1226.6,1106.48L1227.92,1107.23L1229.2,1107.92L1230.45,1108.55L1231.67,1109.1L1232.86,1109.59L1234,1110L1234.62,1110.26L1235.3,1110.51L1236.87,1110.99L1238.67,1111.45L1240.73,1111.9L1243.01,1112.33L1245.51,1112.73L1248.22,1113.12L1251.14,1113.48L1254.25,1113.83L1257.55,1114.16L1261.03,1114.47L1264.67,1114.76L1268.48,1115.03L1272.43,1115.28L1276.52,1115.52L1280.75,1115.73L1289.56,1116.12L1298.8,1116.42L1308.38,1116.66L1318.23,1116.84L1328.3,1116.94L1338.49,1116.99L1348.75,1116.96ZM1327,1050L1323.64,1049.99L1320.3,1049.94L1317,1049.87L1313.73,1049.77L1310.5,1049.64L1307.31,1049.49L1304.17,1049.31L1301.08,1049.11L1298.04,1048.88L1295.06,1048.63L1292.15,1048.35L1289.3,1048.05L1286.51,1047.73L1283.81,1047.38L1281.17,1047.01L1278.62,1046.62L1276.16,1046.22L1273.78,1045.79L1271.5,1045.34L1269.31,1044.87L1267.23,1044.39L1265.25,1043.88L1263.37,1043.37L1261.61,1042.83L1259.96,1042.28L1258.44,1041.71L1257.03,1041.12L1255.76,1040.53L1254.61,1039.91L1253.6,1039.29L1252.73,1038.65L1252.35,1038.33L1252,1038L1251.63,1037.6L1251.26,1037.14L1250.9,1036.63L1250.55,1036.08L1250.2,1035.46L1249.86,1034.81L1249.52,1034.1L1249.19,1033.34L1248.54,1031.68L1247.92,1029.84L1247.32,1027.83L1246.75,1025.64L1246.2,1023.29L1245.67,1020.79L1245.17,1018.14L1244.69,1015.34L1244.23,1012.41L1243.8,1009.35L1243.39,1006.17L1243,1002.88L1242.64,999.47L1242.3,995.964L1241.98,992.363L1241.69,988.674L1241.42,984.903L1241.17,981.058L1240.95,977.146L1240.75,973.172L1240.57,969.144L1240.42,965.069L1240.19,956.803L1240.05,948.428L1240,940L1240.05,931.572L1240.19,923.197L1240.42,914.931L1240.57,910.856L1240.75,906.828L1240.95,902.854L1241.17,898.942L1241.42,895.097L1241.69,891.326L1241.98,887.637L1242.3,884.036L1242.64,880.53L1243,877.125L1243.39,873.829L1243.8,870.648L1244.23,867.589L1244.69,864.658L1245.17,861.863L1245.67,859.211L1246.2,856.707L1246.75,854.359L1247.32,852.174L1247.92,850.158L1248.54,848.319L1249.19,846.662L1249.52,845.904L1249.86,845.195L1250.2,844.535L1250.55,843.925L1250.9,843.365L1251.26,842.857L1251.63,842.402L1252,842L1252.35,841.673L1252.73,841.35L1253.6,840.712L1254.61,840.086L1255.76,839.475L1257.03,838.877L1258.44,838.293L1259.96,837.725L1261.61,837.172L1263.37,836.635L1265.25,836.115L1267.23,835.612L1269.31,835.127L1271.5,834.66L1273.78,834.212L1276.16,833.784L1278.62,833.375L1281.17,832.987L1283.81,832.62L1286.51,832.274L1289.3,831.951L1292.15,831.651L1295.06,831.373L1298.04,831.12L1301.08,830.891L1304.17,830.686L1307.31,830.508L1310.5,830.355L1313.73,830.229L1317,830.129L1320.3,830.058L1323.64,830.015L1327,830L1390,830L1390,1050L1327,1050Z" style="fill:rgb(107,60,65);"/>
        </g>
        <g transform="matrix(0.306095,0,0,0.306095,834.111,612.495)">
            <path d="M1798,1104C1749,1078 1740,1045 1740,895L1740,760L1810,760L1810,893C1810,983 1814,1030 1822,1038C1829,1045 1859,1050 1890,1050C1921,1050 1951,1045 1958,1038C1966,1030 1970,983 1970,893L1970,760L2040,760L2040,893C2040,983 2044,1030 2052,1038C2070,1056 2179,1054 2186,1036C2189,1028 2192,964 2193,893L2195,765L2228,762L2260,759L2260,907C2260,1045 2258,1058 2239,1079C2228,1091 2207,1105 2193,1111C2157,1124 2059,1122 2029,1106C2007,1095 1999,1095 1979,1106C1946,1124 1832,1123 1798,1104Z" style="fill:rgb(255,200,170);fill-rule:nonzero;"/>
            <path d="M2127.14,1119.48L2133.2,1119.35L2139.18,1119.13L2145.05,1118.82L2150.8,1118.43L2153.62,1118.2L2156.41,1117.95L2159.14,1117.68L2161.84,1117.39L2164.48,1117.07L2167.07,1116.74L2169.6,1116.38L2172.08,1116L2174.5,1115.6L2176.85,1115.17L2179.13,1114.73L2181.35,1114.26L2183.49,1113.77L2185.55,1113.26L2187.54,1112.73L2189.45,1112.17L2191.27,1111.6L2193,1111L2194.33,1110.41L2195.7,1109.78L2198.55,1108.39L2201.5,1106.85L2204.55,1105.16L2207.66,1103.34L2210.81,1101.4L2213.97,1099.37L2217.12,1097.25L2220.24,1095.06L2223.3,1092.82L2226.28,1090.53L2229.14,1088.22L2230.52,1087.06L2231.87,1085.89L2233.18,1084.73L2234.44,1083.57L2235.66,1082.42L2236.82,1081.27L2237.94,1080.13L2239,1079L2240.73,1077.05L2242.37,1075.12L2243.91,1073.19L2245.36,1071.24L2246.05,1070.25L2246.72,1069.24L2247.37,1068.21L2247.99,1067.15L2248.6,1066.08L2249.18,1064.97L2249.75,1063.84L2250.3,1062.67L2250.82,1061.47L2251.33,1060.22L2251.82,1058.93L2252.29,1057.6L2252.74,1056.21L2253.18,1054.78L2253.59,1053.29L2253.99,1051.74L2254.38,1050.12L2254.74,1048.45L2255.1,1046.71L2255.43,1044.89L2255.75,1043.01L2256.06,1041.04L2256.35,1039L2256.62,1036.88L2257.14,1032.36L2257.6,1027.49L2258,1022.22L2258.37,1016.53L2258.68,1010.4L2258.96,1003.81L2259.19,996.733L2259.39,989.141L2259.56,981.01L2259.69,972.318L2259.8,963.04L2259.88,953.15L2259.97,931.443L2260,907L2260,759L2228,762L2195,765L2193,893L2192.79,906.219L2192.53,919.201L2192.24,931.876L2191.91,944.172L2191.54,956.016L2191.14,967.338L2190.71,978.065L2190.25,988.125L2189.77,997.447L2189.27,1005.96L2188.75,1013.59L2188.22,1020.27L2187.95,1023.22L2187.67,1025.92L2187.4,1028.34L2187.12,1030.47L2186.84,1032.31L2186.56,1033.86L2186.28,1035.09L2186,1036L2185.82,1036.42L2185.6,1036.83L2185.34,1037.24L2185.05,1037.64L2184.72,1038.04L2184.36,1038.42L2183.97,1038.81L2183.54,1039.19L2183.08,1039.56L2182.58,1039.92L2181.5,1040.64L2180.3,1041.33L2178.97,1041.99L2177.53,1042.63L2175.98,1043.25L2174.33,1043.84L2172.58,1044.41L2170.73,1044.95L2168.78,1045.47L2166.75,1045.97L2164.64,1046.44L2162.45,1046.88L2160.18,1047.3L2157.85,1047.7L2155.45,1048.07L2152.98,1048.41L2150.46,1048.73L2147.89,1049.02L2145.27,1049.29L2142.61,1049.53L2139.91,1049.75L2137.17,1049.94L2134.4,1050.1L2131.61,1050.24L2128.8,1050.35L2125.97,1050.44L2123.12,1050.5L2120.27,1050.53L2117.42,1050.54L2114.57,1050.52L2111.72,1050.48L2108.88,1050.4L2106.05,1050.3L2103.25,1050.18L2100.46,1050.02L2097.71,1049.84L2094.98,1049.63L2092.29,1049.4L2089.64,1049.14L2087.04,1048.85L2084.49,1048.53L2081.99,1048.18L2079.55,1047.81L2077.17,1047.41L2074.86,1046.98L2072.62,1046.53L2070.45,1046.04L2068.37,1045.53L2066.37,1044.99L2064.46,1044.42L2062.64,1043.82L2060.92,1043.19L2059.3,1042.54L2057.79,1041.85L2056.39,1041.14L2055.11,1040.4L2053.95,1039.63L2053.41,1039.23L2052.91,1038.83L2052.44,1038.42L2052,1038L2051.63,1037.6L2051.26,1037.14L2050.9,1036.62L2050.55,1036.04L2050.2,1035.41L2049.86,1034.72L2049.52,1033.97L2049.19,1033.16L2048.86,1032.3L2048.54,1031.38L2047.92,1029.36L2047.32,1027.11L2046.75,1024.62L2046.2,1021.91L2045.67,1018.95L2045.17,1015.76L2044.69,1012.34L2044.23,1008.67L2043.8,1004.77L2043.39,1000.63L2043,996.25L2042.64,991.63L2042.3,986.769L2041.98,981.666L2041.69,976.32L2041.42,970.732L2041.17,964.899L2040.95,958.822L2040.75,952.5L2040.57,945.932L2040.42,939.116L2040.29,932.053L2040.19,924.742L2040.11,917.182L2040.05,909.372L2040,893L2040,760L1970,760L1970,893L1969.95,909.372L1969.89,917.182L1969.81,924.742L1969.71,932.053L1969.58,939.116L1969.43,945.932L1969.25,952.5L1969.05,958.822L1968.83,964.899L1968.58,970.732L1968.31,976.32L1968.02,981.666L1967.7,986.769L1967.36,991.63L1967,996.25L1966.61,1000.63L1966.2,1004.77L1965.77,1008.67L1965.31,1012.34L1964.83,1015.76L1964.33,1018.95L1963.8,1021.91L1963.25,1024.62L1962.68,1027.11L1962.08,1029.36L1961.46,1031.38L1961.14,1032.3L1960.81,1033.16L1960.48,1033.97L1960.14,1034.72L1959.8,1035.41L1959.45,1036.04L1959.1,1036.62L1958.74,1037.14L1958.37,1037.6L1958,1038L1957.65,1038.33L1957.28,1038.65L1956.42,1039.29L1955.44,1039.91L1954.34,1040.53L1953.12,1041.12L1951.78,1041.71L1950.34,1042.28L1948.78,1042.83L1947.12,1043.37L1945.37,1043.88L1943.52,1044.39L1941.58,1044.87L1939.56,1045.34L1937.45,1045.79L1935.26,1046.22L1933,1046.62L1930.67,1047.01L1928.27,1047.38L1925.81,1047.73L1923.29,1048.05L1920.72,1048.35L1918.1,1048.63L1915.43,1048.88L1912.72,1049.11L1909.97,1049.31L1907.19,1049.49L1904.37,1049.64L1901.54,1049.77L1898.67,1049.87L1895.8,1049.94L1892.9,1049.99L1890,1050L1887.1,1049.99L1884.2,1049.94L1881.33,1049.87L1878.47,1049.77L1875.63,1049.64L1872.81,1049.49L1870.03,1049.31L1867.28,1049.11L1864.57,1048.88L1861.9,1048.63L1859.28,1048.35L1856.71,1048.05L1854.19,1047.73L1851.73,1047.38L1849.33,1047.01L1847,1046.62L1844.74,1046.22L1842.55,1045.79L1840.44,1045.34L1838.42,1044.87L1836.48,1044.39L1834.63,1043.88L1832.88,1043.37L1831.22,1042.83L1829.66,1042.28L1828.22,1041.71L1826.88,1041.12L1825.66,1040.53L1824.56,1039.91L1823.58,1039.29L1822.72,1038.65L1822.35,1038.33L1822,1038L1821.63,1037.6L1821.26,1037.14L1820.9,1036.62L1820.55,1036.04L1820.2,1035.41L1819.86,1034.72L1819.52,1033.97L1819.19,1033.16L1818.86,1032.3L1818.54,1031.38L1817.92,1029.36L1817.32,1027.11L1816.75,1024.62L1816.2,1021.91L1815.67,1018.95L1815.17,1015.76L1814.69,1012.34L1814.23,1008.67L1813.8,1004.77L1813.39,1000.63L1813,996.25L1812.64,991.63L1812.3,986.769L1811.98,981.666L1811.69,976.32L1811.42,970.732L1811.17,964.899L1810.95,958.822L1810.75,952.5L1810.57,945.932L1810.42,939.116L1810.29,932.053L1810.19,924.742L1810.11,917.182L1810.05,909.372L1810,893L1810,760L1740,760L1740,895L1740.03,908.723L1740.11,921.781L1740.26,934.193L1740.48,945.98L1740.78,957.163L1740.95,962.533L1741.15,967.76L1741.37,972.846L1741.62,977.793L1741.88,982.604L1742.17,987.281L1742.49,991.827L1742.83,996.245L1743.19,1000.54L1743.58,1004.71L1744,1008.75L1744.45,1012.68L1744.93,1016.49L1745.43,1020.19L1745.97,1023.78L1746.54,1027.26L1747.13,1030.63L1747.76,1033.9L1748.43,1037.07L1749.13,1040.14L1749.86,1043.12L1750.62,1046L1751.43,1048.79L1752.27,1051.49L1753.14,1054.11L1754.06,1056.64L1755.01,1059.1L1756.01,1061.47L1757.04,1063.77L1758.12,1066L1759.23,1068.15L1760.39,1070.24L1761.59,1072.26L1762.84,1074.22L1764.12,1076.12L1765.46,1077.95L1766.84,1079.74L1768.27,1081.47L1769.74,1083.15L1771.26,1084.78L1772.83,1086.37L1774.45,1087.91L1776.12,1089.41L1777.84,1090.88L1779.62,1092.31L1781.44,1093.71L1783.32,1095.07L1785.25,1096.41L1787.23,1097.73L1789.27,1099.02L1791.37,1100.29L1793.52,1101.54L1795.73,1102.78L1798,1104L1799.65,1104.88L1801.42,1105.73L1803.29,1106.55L1805.27,1107.35L1807.36,1108.12L1809.54,1108.87L1811.82,1109.59L1814.19,1110.28L1816.64,1110.94L1819.18,1111.58L1821.8,1112.2L1824.5,1112.78L1827.27,1113.34L1830.11,1113.87L1833.02,1114.38L1835.98,1114.86L1839.01,1115.31L1842.09,1115.74L1845.22,1116.14L1848.4,1116.51L1851.62,1116.85L1854.88,1117.17L1858.18,1117.46L1861.51,1117.73L1864.87,1117.97L1868.25,1118.18L1871.66,1118.36L1875.08,1118.52L1878.52,1118.65L1881.96,1118.75L1885.42,1118.83L1888.88,1118.88L1892.33,1118.9L1895.78,1118.89L1899.23,1118.86L1902.66,1118.8L1906.07,1118.71L1909.47,1118.6L1912.85,1118.46L1916.19,1118.29L1919.51,1118.09L1922.8,1117.87L1926.04,1117.62L1929.25,1117.34L1932.4,1117.03L1935.52,1116.7L1938.58,1116.34L1941.58,1115.95L1944.52,1115.54L1947.4,1115.1L1950.21,1114.62L1952.96,1114.13L1955.62,1113.6L1958.21,1113.05L1960.72,1112.47L1963.14,1111.86L1965.48,1111.23L1967.72,1110.56L1969.86,1109.87L1971.9,1109.15L1973.84,1108.41L1975.67,1107.63L1977.39,1106.83L1979,1106L1980.84,1105L1982.62,1104.07L1984.33,1103.2L1985.99,1102.39L1987.6,1101.65L1989.16,1100.97L1990.67,1100.36L1992.16,1099.81L1993.61,1099.33L1995.03,1098.91L1996.43,1098.56L1997.81,1098.27L1999.18,1098.04L2000.54,1097.88L2001.89,1097.78L2003.25,1097.75L2004.61,1097.78L2005.99,1097.88L2007.38,1098.04L2008.79,1098.27L2010.22,1098.56L2011.68,1098.91L2013.18,1099.33L2014.72,1099.81L2016.3,1100.36L2017.93,1100.97L2019.61,1101.65L2021.36,1102.39L2023.16,1103.2L2025.03,1104.07L2026.98,1105L2029,1106L2030.46,1106.74L2032.01,1107.46L2033.65,1108.16L2035.39,1108.84L2037.21,1109.49L2039.12,1110.13L2041.11,1110.75L2043.18,1111.34L2045.33,1111.92L2047.55,1112.47L2049.84,1113L2052.19,1113.52L2054.61,1114.01L2057.09,1114.48L2059.63,1114.93L2062.22,1115.36L2064.86,1115.77L2067.56,1116.15L2070.3,1116.52L2073.08,1116.87L2075.9,1117.19L2078.76,1117.5L2084.58,1118.04L2090.51,1118.5L2096.54,1118.88L2102.62,1119.17L2108.75,1119.38L2114.89,1119.5L2121.03,1119.53L2127.14,1119.48Z" style="fill:rgb(107,60,65);"/>
        </g>
    </g>
</svg>
